<?xml version="1.0" encoding="UTF-8"?>
<svg width="736px" height="849px" viewBox="0 0 736 849" version="1.1" xmlns="http://www.w3.org/2000/svg" xmlns:xlink="http://www.w3.org/1999/xlink">
    <title>fontawesome_hex_logo</title>
    <g id="fontawesome" stroke="none" stroke-width="1" fill="none" fill-rule="evenodd">
        <g id="fontawesome_hex_logo">
            <polygon id="hex_outside" fill="#343A40" points="706.337612 195.45 428.537612 35.05 368.237612 0.25 307.937612 35.05 30.1376121 195.45 0.837612102 212.35 0.837612102 636.65 30.1376121 653.55 311.337612 815.95 368.237612 848.75 425.137612 815.95 706.337612 653.55 735.637612 636.65 735.637612 212.35"></polygon>
            <polygon id="hex_inside" fill="#F8F9FA" points="725.944024 632.072543 368.237612 838.592187 10.5312 632.072543 10.5312 218.927457 368.237612 12.4078125 725.944024 218.927457"></polygon>
            <path d="M17.6,462.34 C19.68,462.34 21.48,461.58 23,460.06 C24.52,458.54 25.28,456.74 25.28,454.66 L25.28,454.66 L25.28,416.86 L31.16,416.86 C33,416.86 34.58,416.22 35.9,414.94 C37.22,413.66 37.88,412.1 37.88,410.26 C37.88,408.42 37.22,406.84 35.9,405.52 C34.58,404.2 33,403.54 31.16,403.54 L31.16,403.54 L25.28,403.54 L25.28,400.66 C25.28,398.02 25.92,395.96 27.2,394.48 C28.48,393 30.24,392.26 32.48,392.26 L32.48,392.26 L34.64,392.38 C36.32,392.38 37.68,391.84 38.72,390.76 C39.76,389.68 40.28,388.3 40.28,386.62 C40.28,385.18 39.84,383.96 38.96,382.96 C38.08,381.96 36.96,381.3 35.6,380.98 C33.68,380.5 31.64,380.26 29.48,380.26 C23.64,380.26 18.92,382.08 15.32,385.72 C11.72,389.36 9.92,394.26 9.92,400.42 L9.92,400.42 L9.92,403.54 L6.2,403.54 C4.36,403.54 2.78,404.2 1.46,405.52 C0.14,406.84 -0.52,408.42 -0.52,410.26 C-0.52,412.1 0.14,413.66 1.46,414.94 C2.78,416.22 4.36,416.86 6.2,416.86 L6.2,416.86 L9.92,416.86 L9.92,454.66 C9.92,456.74 10.68,458.54 12.2,460.06 C13.72,461.58 15.52,462.34 17.6,462.34 Z M71.68,462.94 C80.88,462.94 88.3,460.02 93.94,454.18 C99.58,448.34 102.4,441.1 102.4,432.46 C102.4,423.9 99.58,416.7 93.94,410.86 C88.3,405.02 80.88,402.1 71.68,402.1 C62.56,402.1 55.18,405.02 49.54,410.86 C43.9,416.7 41.08,423.9 41.08,432.46 C41.08,441.1 43.88,448.34 49.48,454.18 C55.08,460.02 62.48,462.94 71.68,462.94 Z M71.68,449.38 C67.2,449.38 63.62,447.78 60.94,444.58 C58.26,441.38 56.92,437.34 56.92,432.46 C56.92,427.58 58.26,423.56 60.94,420.4 C63.62,417.24 67.2,415.66 71.68,415.66 C76.16,415.66 79.76,417.26 82.48,420.46 C85.2,423.66 86.56,427.66 86.56,432.46 C86.56,437.34 85.2,441.38 82.48,444.58 C79.76,447.78 76.16,449.38 71.68,449.38 Z M159.36,462.34 C161.52,462.34 163.34,461.58 164.82,460.06 C166.3,458.54 167.04,456.74 167.04,454.66 L167.04,454.66 L167.04,420.58 C167.04,414.74 165.44,410.2 162.24,406.96 C159.04,403.72 154.36,402.1 148.2,402.1 C140.04,402.1 133.32,405.02 128.04,410.86 L128.04,410.86 L128.04,410.38 C128.04,408.22 127.28,406.38 125.76,404.86 C124.24,403.34 122.4,402.58 120.24,402.58 C118.16,402.58 116.38,403.34 114.9,404.86 C113.42,406.38 112.68,408.22 112.68,410.38 L112.68,410.38 L112.68,454.66 C112.68,456.74 113.42,458.54 114.9,460.06 C116.38,461.58 118.2,462.34 120.36,462.34 C122.44,462.34 124.22,461.58 125.7,460.06 C127.18,458.54 127.92,456.74 127.92,454.66 L127.92,454.66 L127.92,422.5 C131.36,417.94 135.76,415.66 141.12,415.66 C148.24,415.66 151.8,419.26 151.8,426.46 L151.8,426.46 L151.8,454.66 C151.8,456.74 152.54,458.54 154.02,460.06 C155.5,461.58 157.28,462.34 159.36,462.34 Z M200.6,462.94 C203.72,462.94 206.36,462.54 208.52,461.74 C211.56,460.78 213.08,458.78 213.08,455.74 C213.08,453.9 212.54,452.36 211.46,451.12 C210.38,449.88 208.96,449.22 207.2,449.14 C207.04,449.14 206.68,449.18 206.12,449.26 C205.56,449.34 205.08,449.38 204.68,449.38 C203.08,449.38 201.82,448.8 200.9,447.64 C199.98,446.48 199.52,444.94 199.52,443.02 L199.52,443.02 L199.52,416.86 L205.52,416.86 C207.36,416.86 208.92,416.2 210.2,414.88 C211.48,413.56 212.12,412.02 212.12,410.26 C212.12,408.42 211.48,406.84 210.2,405.52 C208.92,404.2 207.36,403.54 205.52,403.54 L205.52,403.54 L199.52,403.54 L199.52,394.54 C199.52,392.46 198.78,390.66 197.3,389.14 C195.82,387.62 194.04,386.86 191.96,386.86 C189.8,386.86 187.96,387.62 186.44,389.14 C184.92,390.66 184.16,392.46 184.16,394.54 L184.16,394.54 L184.16,403.54 L180.44,403.54 C178.6,403.54 177.02,404.2 175.7,405.52 C174.38,406.84 173.72,408.42 173.72,410.26 C173.72,412.1 174.38,413.66 175.7,414.94 C177.02,416.22 178.6,416.86 180.44,416.86 L180.44,416.86 L184.16,416.86 L184.16,447.1 C184.16,452.22 185.56,456.14 188.36,458.86 C191.16,461.58 195.24,462.94 200.6,462.94 Z M237.16,462.94 C245.24,462.94 251.32,460.46 255.4,455.5 C255.64,457.5 256.5,459.14 257.98,460.42 C259.46,461.7 261.16,462.34 263.08,462.34 C265.24,462.34 267.06,461.56 268.54,460 C270.02,458.44 270.76,456.58 270.76,454.42 L270.76,454.42 L270.76,424.06 C270.76,416.38 268.4,410.78 263.68,407.26 C259.04,403.82 252.96,402.1 245.44,402.1 C237.44,402.1 230.28,404.18 223.96,408.34 C222.12,409.46 221.2,411.14 221.2,413.38 C221.2,414.98 221.76,416.36 222.88,417.52 C224,418.68 225.36,419.26 226.96,419.26 C228.08,419.26 229.08,418.98 229.96,418.42 C234.12,415.86 238.4,414.58 242.8,414.58 C246.64,414.58 249.72,415.46 252.04,417.22 C254.36,418.98 255.52,421.34 255.52,424.3 L255.52,424.3 L255.52,432.34 C251.68,427.62 245.56,425.26 237.16,425.26 C231.72,425.26 227,426.84 223,430 C219,433.16 217,437.74 217,443.74 C217,449.66 219.04,454.34 223.12,457.78 C227.2,461.22 231.88,462.94 237.16,462.94 Z M243.28,452.62 C240.08,452.62 237.46,451.84 235.42,450.28 C233.38,448.72 232.36,446.66 232.36,444.1 C232.36,441.46 233.38,439.34 235.42,437.74 C237.46,436.14 240.08,435.34 243.28,435.34 C248.96,435.34 253.04,437.02 255.52,440.38 L255.52,440.38 L255.52,447.58 C253.04,450.94 248.96,452.62 243.28,452.62 Z M343.92,462.34 C346.24,462.34 348.36,461.64 350.28,460.24 C352.2,458.84 353.44,457.02 354,454.78 L354,454.78 L366.96,412.3 C367.2,411.1 367.32,410.42 367.32,410.26 C367.32,408.18 366.6,406.4 365.16,404.92 C363.72,403.44 361.96,402.7 359.88,402.7 C358.12,402.7 356.56,403.22 355.2,404.26 C353.84,405.3 352.96,406.62 352.56,408.22 L352.56,408.22 L342.96,442.54 L331.92,408.82 C331.36,406.98 330.32,405.5 328.8,404.38 C327.28,403.26 325.52,402.7 323.52,402.7 C321.52,402.7 319.74,403.26 318.18,404.38 C316.62,405.5 315.56,406.98 315,408.82 L315,408.82 L303.96,442.54 L294.36,408.22 C293.96,406.62 293.1,405.3 291.78,404.26 C290.46,403.22 288.92,402.7 287.16,402.7 C285.08,402.7 283.32,403.42 281.88,404.86 C280.44,406.3 279.72,408.06 279.72,410.14 C279.72,410.46 279.8,411.18 279.96,412.3 L279.96,412.3 L292.92,454.78 C293.56,457.02 294.82,458.84 296.7,460.24 C298.58,461.64 300.72,462.34 303.12,462.34 C305.52,462.34 307.64,461.64 309.48,460.24 C311.32,458.84 312.56,457.02 313.2,454.78 L313.2,454.78 L323.52,422.02 L333.72,454.78 C334.36,457.02 335.62,458.84 337.5,460.24 C339.38,461.64 341.52,462.34 343.92,462.34 Z M403.4,462.94 C410.52,462.94 416.88,461.34 422.48,458.14 C424.64,456.94 425.72,455.18 425.72,452.86 C425.72,451.26 425.12,449.86 423.92,448.66 C422.72,447.46 421.32,446.86 419.72,446.86 C418.6,446.86 417.64,447.1 416.84,447.58 C413,449.74 409.08,450.82 405.08,450.82 C400.44,450.82 396.62,449.56 393.62,447.04 C390.62,444.52 388.88,441.3 388.4,437.38 L388.4,437.38 L422.48,437.38 C428.48,437.38 431.48,434.98 431.48,430.18 C431.48,422.42 428.72,415.8 423.2,410.32 C417.68,404.84 410.76,402.1 402.44,402.1 C393.8,402.1 386.64,405.04 380.96,410.92 C375.28,416.8 372.44,423.98 372.44,432.46 C372.44,441.5 375.36,448.84 381.2,454.48 C387.04,460.12 394.44,462.94 403.4,462.94 Z M416.72,427.06 L388.16,427.06 C388.64,423.46 390.12,420.42 392.6,417.94 C395.08,415.46 398.36,414.22 402.44,414.22 C406.76,414.22 410.16,415.46 412.64,417.94 C415.12,420.42 416.48,423.46 416.72,427.06 L416.72,427.06 Z M462.4,462.94 C470.16,462.94 476.28,461.2 480.76,457.72 C485.24,454.24 487.48,449.78 487.48,444.34 C487.48,436.5 483.6,431.18 475.84,428.38 C472.16,427.1 468.28,426.1 464.2,425.38 C460.12,424.58 457.26,423.74 455.62,422.86 C453.98,421.98 453.16,420.74 453.16,419.14 C453.16,417.46 453.98,416.14 455.62,415.18 C457.26,414.22 459.48,413.74 462.28,413.74 C467.08,413.74 471.48,414.98 475.48,417.46 C476.2,417.94 477.16,418.18 478.36,418.18 C479.96,418.18 481.34,417.6 482.5,416.44 C483.66,415.28 484.24,413.9 484.24,412.3 C484.24,409.98 483.24,408.3 481.24,407.26 C475.64,403.82 469.28,402.1 462.16,402.1 C454.96,402.1 449.2,403.86 444.88,407.38 C440.56,410.9 438.4,415.22 438.4,420.34 C438.4,428.02 442.16,433.1 449.68,435.58 C452.64,436.7 456.48,437.66 461.2,438.46 C465.36,439.26 468.34,440.16 470.14,441.16 C471.94,442.16 472.84,443.54 472.84,445.3 C472.84,449.22 469.6,451.18 463.12,451.18 C457.92,451.18 452.68,449.54 447.4,446.26 C446.36,445.7 445.28,445.42 444.16,445.42 C442.4,445.42 440.9,446.04 439.66,447.28 C438.42,448.52 437.8,450.02 437.8,451.78 C437.8,454.26 438.88,456.1 441.04,457.3 C447.2,461.06 454.32,462.94 462.4,462.94 Z M524.64,462.94 C533.84,462.94 541.26,460.02 546.9,454.18 C552.54,448.34 555.36,441.1 555.36,432.46 C555.36,423.9 552.54,416.7 546.9,410.86 C541.26,405.02 533.84,402.1 524.64,402.1 C515.52,402.1 508.14,405.02 502.5,410.86 C496.86,416.7 494.04,423.9 494.04,432.46 C494.04,441.1 496.84,448.34 502.44,454.18 C508.04,460.02 515.44,462.94 524.64,462.94 Z M524.64,449.38 C520.16,449.38 516.58,447.78 513.9,444.58 C511.22,441.38 509.88,437.34 509.88,432.46 C509.88,427.58 511.22,423.56 513.9,420.4 C516.58,417.24 520.16,415.66 524.64,415.66 C529.12,415.66 532.72,417.26 535.44,420.46 C538.16,423.66 539.52,427.66 539.52,432.46 C539.52,437.34 538.16,441.38 535.44,444.58 C532.72,447.78 529.12,449.38 524.64,449.38 Z M645.2,462.34 C647.28,462.34 649.08,461.58 650.6,460.06 C652.12,458.54 652.88,456.74 652.88,454.66 L652.88,454.66 L652.88,419.62 C652.88,413.86 651.42,409.5 648.5,406.54 C645.58,403.58 641.36,402.1 635.84,402.1 C631.84,402.1 628,403.12 624.32,405.16 C620.64,407.2 617.84,409.7 615.92,412.66 C613.52,405.62 608.16,402.1 599.84,402.1 C595.84,402.1 592.08,403.06 588.56,404.98 C585.12,406.9 582.6,408.9 581,410.98 L581,410.98 L581,410.38 C581,408.22 580.24,406.38 578.72,404.86 C577.2,403.34 575.36,402.58 573.2,402.58 C571.12,402.58 569.34,403.34 567.86,404.86 C566.38,406.38 565.64,408.22 565.64,410.38 L565.64,410.38 L565.64,454.66 C565.64,456.74 566.38,458.54 567.86,460.06 C569.34,461.58 571.16,462.34 573.32,462.34 C575.4,462.34 577.18,461.58 578.66,460.06 C580.14,458.54 580.88,456.74 580.88,454.66 L580.88,454.66 L580.88,422.5 C582.24,420.58 584,418.96 586.16,417.64 C588.32,416.32 590.56,415.66 592.88,415.66 C598.64,415.66 601.52,418.74 601.52,424.9 L601.52,424.9 L601.52,454.66 C601.52,456.74 602.28,458.54 603.8,460.06 C605.32,461.58 607.12,462.34 609.2,462.34 C611.28,462.34 613.08,461.58 614.6,460.06 C616.12,458.54 616.88,456.74 616.88,454.66 L616.88,454.66 L616.88,422.38 C620.16,417.9 624.16,415.66 628.88,415.66 C634.64,415.66 637.52,418.74 637.52,424.9 L637.52,424.9 L637.52,454.66 C637.52,456.74 638.28,458.54 639.8,460.06 C641.32,461.58 643.12,462.34 645.2,462.34 Z M694.12,462.94 C701.24,462.94 707.6,461.34 713.2,458.14 C715.36,456.94 716.44,455.18 716.44,452.86 C716.44,451.26 715.84,449.86 714.64,448.66 C713.44,447.46 712.04,446.86 710.44,446.86 C709.32,446.86 708.36,447.1 707.56,447.58 C703.72,449.74 699.8,450.82 695.8,450.82 C691.16,450.82 687.34,449.56 684.34,447.04 C681.34,444.52 679.6,441.3 679.12,437.38 L679.12,437.38 L713.2,437.38 C719.2,437.38 722.2,434.98 722.2,430.18 C722.2,422.42 719.44,415.8 713.92,410.32 C708.4,404.84 701.48,402.1 693.16,402.1 C684.52,402.1 677.36,405.04 671.68,410.92 C666,416.8 663.16,423.98 663.16,432.46 C663.16,441.5 666.08,448.84 671.92,454.48 C677.76,460.12 685.16,462.94 694.12,462.94 Z M707.44,427.06 L678.88,427.06 C679.36,423.46 680.84,420.42 683.32,417.94 C685.8,415.46 689.08,414.22 693.16,414.22 C697.48,414.22 700.88,415.46 703.36,417.94 C705.84,420.42 707.2,423.46 707.44,427.06 L707.44,427.06 Z" id="fontawesome" fill="#2F2F2F" fill-rule="nonzero" transform="translate(360.840000, 421.600000) rotate(-30.000000) translate(-360.840000, -421.600000) "></path>
            <g id="fa_bike" transform="translate(27.000000, 191.000000)" fill="#9B9B9B" fill-rule="nonzero">
                <path d="M58.59375,14.0625 C62.4770021,14.0625 65.625,10.9145021 65.625,7.03125 C65.625,3.14799785 62.4770021,0 58.59375,0 C54.7104979,0 51.5625,3.14799785 51.5625,7.03125 C51.5625,10.9145021 54.7104979,14.0625 58.59375,14.0625 L58.59375,14.0625 Z M58.0078125,31.7871094 C58.8390125,32.4527379 59.8726288,32.8145036 60.9375,32.8125 L70.3125,32.8125 C72.9013348,32.8125 75,30.7138348 75,28.125 C75,25.5361652 72.9013348,23.4375 70.3125,23.4375 L62.5810547,23.4375 L52.1484375,15.0878906 C50.3916643,13.6775064 47.8792199,13.7193702 46.1704102,15.1875 L29.7641602,29.25 C28.6501441,30.2051428 28.0476989,31.6268562 28.136297,33.0916018 C28.2248951,34.5563475 28.9943117,35.895081 30.215332,36.7089844 L42.1875,44.6953125 L42.1875,60.9375 C42.1875,63.5263348 44.2861652,65.625 46.875,65.625 C49.4638348,65.625 51.5625,63.5263348 51.5625,60.9375 L51.5625,42.1875 C51.562212,40.6204993 50.7789344,39.1572816 49.4750977,38.2880859 L43.4165039,34.2495117 L51.9492188,26.9370117 L58.0078125,31.7871094 Z M75,37.5 C64.6446609,37.5 56.25,45.8946609 56.25,56.25 C56.25,66.6053391 64.6446609,75 75,75 C85.3553391,75 93.75,66.6053391 93.75,56.25 C93.75,45.8946609 85.3553391,37.5 75,37.5 L75,37.5 Z M75,65.625 C69.8223305,65.625 65.625,61.4276695 65.625,56.25 C65.625,51.0723305 69.8223305,46.875 75,46.875 C80.1776695,46.875 84.375,51.0723305 84.375,56.25 C84.375,61.4276695 80.1776695,65.625 75,65.625 Z M18.75,37.5 C8.39466094,37.5 0,45.8946609 0,56.25 C0,66.6053391 8.39466094,75 18.75,75 C29.1053391,75 37.5,66.6053391 37.5,56.25 C37.5,45.8946609 29.1053391,37.5 18.75,37.5 L18.75,37.5 Z M18.75,65.625 C13.5723305,65.625 9.375,61.4276695 9.375,56.25 C9.375,51.0723305 13.5723305,46.875 18.75,46.875 C23.9276695,46.875 28.125,51.0723305 28.125,56.25 C28.125,61.4276695 23.9276695,65.625 18.75,65.625 Z" id="Shape"></path>
            </g>
            <g id="fa_tram" transform="translate(123.120791, 122.000000)" fill="#9B9B9B" fill-rule="nonzero">
                <path d="M96.75,21.5 C102.696094,21.5 107.5,16.6960937 107.5,10.75 C107.5,4.80390625 102.696094,0 96.75,0 C90.8039062,0 86,4.80390625 86,10.75 C86,16.6960937 90.8039062,21.5 96.75,21.5 Z M171.832031,17.4351563 C171.059375,14.5460938 168.136719,12.8664063 165.247656,13.6390625 L3.99765625,56.6390625 C1.1421875,57.4117187 -0.57109375,60.334375 0.2015625,63.2234375 C0.83984375,65.6085938 2.98984375,67.1875 5.375,67.1875 C5.8453125,67.1875 6.315625,67.1203125 6.75234375,67.0195312 L80.625,47.3 L80.625,75.25 L21.5,75.25 C15.5539062,75.25 10.75,80.0539062 10.75,86 L10.75,161.25 C10.75,167.196094 15.5539062,172 21.5,172 L150.5,172 C156.446094,172 161.25,167.196094 161.25,161.25 L161.25,86 C161.25,80.0539062 156.446094,75.25 150.5,75.25 L91.375,75.25 L91.375,44.4445313 L168.002344,24.0195313 C170.891406,23.246875 172.571094,20.290625 171.832031,17.4351563 Z M59.125,129 L26.875,129 L26.875,96.75 L59.125,96.75 L59.125,129 Z M112.875,96.75 L145.125,96.75 L145.125,129 L112.875,129 L112.875,96.75 Z M102.125,96.75 L102.125,129 L69.875,129 L69.875,96.75 L102.125,96.75 Z M64.5,32.25 C70.4460937,32.25 75.25,27.4460937 75.25,21.5 C75.25,15.5539062 70.4460937,10.75 64.5,10.75 C58.5539062,10.75 53.75,15.5539062 53.75,21.5 C53.75,27.4460937 58.5539062,32.25 64.5,32.25 Z" id="Shape"></path>
            </g>
            <g id="fa_cocktail" transform="translate(586.367222, 431.950017)" fill="#9B9B9B" fill-rule="nonzero">
                <path d="M66.1289063,103.3125 L53.6601563,103.3125 L53.6601563,75.4314844 L91.2311719,37.8626953 C94.6867969,34.4070703 92.2398047,28.5 87.3525,28.5 L5.7178125,28.5 C0.830507813,28.5 -1.61648437,34.4070703 1.83914062,37.8626953 L39.4101563,75.4314844 L39.4101563,103.3125 L26.9414063,103.3125 C22.0229297,103.3125 18.0351563,107.300273 18.0351563,112.21875 C18.0351563,113.202891 18.8322656,114 19.8164063,114 L73.2539063,114 C74.2380469,114 75.0351563,113.202891 75.0351563,112.21875 C75.0351563,107.300273 71.0473828,103.3125 66.1289063,103.3125 Z M96.4101563,0 C82.4696484,0 70.7267578,8.95078125 66.3114844,21.375 L78.0098438,21.375 C81.7170703,15.0181641 88.5348047,10.6875 96.4101563,10.6875 C108.195352,10.6875 117.785156,20.2750781 117.785156,32.0625 C117.785156,43.8499219 108.195352,53.4375 96.4101563,53.4375 C93.2840625,53.4375 90.3338672,52.725 87.6553125,51.51375 L79.8044531,59.3646094 C84.6605859,62.3259375 90.3071484,64.125 96.4101563,64.125 C114.118008,64.125 128.472656,49.7703516 128.472656,32.0625 C128.472656,14.3546484 114.118008,0 96.4101563,0 Z" id="Shape"></path>
            </g>
            <g id="fa_chat" transform="translate(313.844588, 41.000000)" fill="#9B9B9B" fill-rule="nonzero">
                <path d="M31.0714286,37.7142857 C27.2785714,37.7142857 24.2142857,40.7785714 24.2142857,44.5714286 C24.2142857,48.3642857 27.2785714,51.4285714 31.0714286,51.4285714 C34.8642857,51.4285714 37.9285714,48.3642857 37.9285714,44.5714286 C37.9285714,40.7785714 34.8642857,37.7142857 31.0714286,37.7142857 Z M55.0714286,37.7142857 C51.2785714,37.7142857 48.2142857,40.7785714 48.2142857,44.5714286 C48.2142857,48.3642857 51.2785714,51.4285714 55.0714286,51.4285714 C58.8642857,51.4285714 61.9285714,48.3642857 61.9285714,44.5714286 C61.9285714,40.7785714 58.8642857,37.7142857 55.0714286,37.7142857 Z M79.0714286,37.7142857 C75.2785714,37.7142857 72.2142857,40.7785714 72.2142857,44.5714286 C72.2142857,48.3642857 75.2785714,51.4285714 79.0714286,51.4285714 C82.8642857,51.4285714 85.9285714,48.3642857 85.9285714,44.5714286 C85.9285714,40.7785714 82.8642857,37.7142857 79.0714286,37.7142857 Z M55.0714286,0 C24.7714286,0 0.214285714,19.95 0.214285714,44.5714286 C0.214285714,54.7714286 4.47857143,64.1142857 11.55,71.6357143 C8.35714286,80.0785714 1.71428571,87.2357143 1.60714286,87.3214286 C0.192857143,88.8214286 -0.192857143,91.0071429 0.621428571,92.8928571 C1.43571429,94.7785714 3.3,96 5.35714286,96 C18.5357143,96 28.9285714,90.4928571 35.1642857,86.0785714 C41.3571429,88.0285714 48.0428571,89.1428571 55.0714286,89.1428571 C85.3714286,89.1428571 109.928571,69.1928571 109.928571,44.5714286 C109.928571,19.95 85.3714286,0 55.0714286,0 Z M55.0714286,78.8571429 C49.35,78.8571429 43.6928571,77.9785714 38.2714286,76.2642857 L33.4071429,74.7214286 L29.2285714,77.6785714 C26.1642857,79.8428571 21.9642857,82.2642857 16.9071429,83.8928571 C18.4714286,81.3 19.9928571,78.3857143 21.1714286,75.2785714 L23.4428571,69.2571429 L19.0285714,64.5857143 C15.15,60.45 10.5,53.6142857 10.5,44.5714286 C10.5,25.6714286 30.4928571,10.2857143 55.0714286,10.2857143 C79.65,10.2857143 99.6428571,25.6714286 99.6428571,44.5714286 C99.6428571,63.4714286 79.65,78.8571429 55.0714286,78.8571429 Z" id="Shape"></path>
            </g>
            <g id="fa_wind" transform="translate(286.250130, 141.241228)" fill="#9B9B9B" fill-rule="nonzero">
                <path d="M26.8543579,38.3878505 L2.74198932,38.3878505 C1.23389519,38.3878505 0,39.6217457 0,41.1298398 L0,46.6138184 C0,48.1219126 1.23389519,49.3558077 2.74198932,49.3558077 L27.1114194,49.3558077 C29.8362713,49.3558077 32.3897488,51.223788 32.8353221,53.914365 C33.4008574,57.3418516 30.7616927,60.323765 27.4198932,60.323765 C25.0035151,60.323765 22.9470231,58.7471212 22.2101135,56.5706671 C21.8502274,55.4910088 20.7362942,54.8397864 19.6052236,54.8397864 L13.9841455,54.8397864 C12.3046771,54.8397864 10.9508198,56.3478805 11.2592936,57.9930741 C12.7331129,65.5506822 19.4167119,71.2917223 27.4027558,71.2917223 C37.1882301,71.2917223 45.0028997,62.7058682 43.7175922,52.6804698 C42.6722088,44.3859521 35.2002879,38.3878505 26.8543579,38.3878505 Z M2.74198932,32.9038718 L60.323765,32.9038718 C70.5548127,32.9038718 78.6265437,23.5125584 76.3986774,12.9044872 C75.0962325,6.7007364 70.0749645,1.67946846 63.8712137,0.377023531 C54.3770757,-1.61091872 45.8597714,4.64424441 44.1803029,13.3157856 C43.8546917,14.9609792 45.2256863,16.4519359 46.8880174,16.4519359 L52.5090955,16.4519359 C53.6573035,16.4519359 54.7540992,15.8007135 55.1139853,14.7210552 C55.8508949,12.5446011 57.9073869,10.9679573 60.323765,10.9679573 C63.6484271,10.9679573 66.3047292,13.9498707 65.7391939,17.3773573 C65.2936207,20.0679343 62.7572805,21.9359146 60.0152912,21.9359146 L2.74198932,21.9359146 C1.23389519,21.9359146 0,23.1698097 0,24.6779039 L0,30.1618825 C0,31.6699766 1.23389519,32.9038718 2.74198932,32.9038718 Z M68.549733,38.3878505 L41.7639248,38.3878505 C45.0714494,41.2326644 47.4535527,45.0371746 48.5846232,49.3558077 L68.549733,49.3558077 C73.0911528,49.3558077 76.7757009,53.0403559 76.7757009,57.5817757 C76.7757009,62.1231955 73.0911528,65.8077437 68.549733,65.8077437 C65.4821324,65.8077437 62.8429677,64.1111378 61.4205607,61.6262099 C60.9235752,60.7693383 59.9296041,60.323765 58.9356329,60.323765 L53.1431805,60.323765 C51.2752003,60.323765 49.8870682,62.1746078 50.5211532,63.9397634 C53.5716163,72.6113047 62.6030436,78.4723068 72.6969918,76.3301277 C79.7576143,74.839171 85.5672042,69.2009554 87.2123978,62.1574704 C90.1428989,49.6128692 80.6316234,38.3878505 68.549733,38.3878505 Z" id="Shape"></path>
            </g>
            <g id="fa_gamepad" transform="translate(652.173465, 391.999815)" fill="#9B9B9B" fill-rule="nonzero">
                <path d="M44.3486406,-1.52098011e-07 L14.8421875,-1.52098011e-07 C8.14770886,-0.000956191511 2.29209623,4.50662978 0.580386921,10.9785767 C-1.13132238,17.4505235 1.73017976,24.2636239 7.54979822,27.5724131 C13.3694167,30.8812023 20.6875523,29.855814 25.3736875,25.075 L33.8106875,25.075 C38.4962627,29.8552423 45.8133014,30.8810207 51.6327065,27.5734755 C57.4521117,24.2659303 60.3147042,17.4544077 58.605087,10.9827355 C56.8954699,4.51106332 51.0423188,0.0019726251 44.3486406,-1.52098011e-07 Z M22.9546875,15.85625 C22.9546875,16.467215 22.4594025,16.9625 21.8484375,16.9625 L17.0546875,16.9625 L17.0546875,21.75625 C17.0546875,22.367215 16.5594025,22.8625 15.9484375,22.8625 L13.7359375,22.8625 C13.1249725,22.8625 12.6296875,22.367215 12.6296875,21.75625 L12.6296875,16.9625 L7.8359375,16.9625 C7.2249725,16.9625 6.7296875,16.467215 6.7296875,15.85625 L6.7296875,13.64375 C6.7296875,13.032785 7.2249725,12.5375 7.8359375,12.5375 L12.6296875,12.5375 L12.6296875,7.74375 C12.6296875,7.132785 13.1249725,6.6375 13.7359375,6.6375 L15.9484375,6.6375 C16.5594025,6.6375 17.0546875,7.132785 17.0546875,7.74375 L17.0546875,12.5375 L21.8484375,12.5375 C22.4594025,12.5375 22.9546875,13.032785 22.9546875,13.64375 L22.9546875,15.85625 Z M42.8671875,22.8625 C41.375733,22.8625 40.0311367,21.9640695 39.4603817,20.5861452 C38.8896268,19.2082208 39.2051136,17.6221614 40.2597312,16.5675437 C41.3143489,15.5129261 42.9004083,15.1974393 44.2783327,15.7681942 C45.656257,16.3389492 46.5546875,17.6835455 46.5546875,19.175 C46.5546875,21.21155 44.9037375,22.8625 42.8671875,22.8625 L42.8671875,22.8625 Z M48.7671875,14.0125 C46.7306375,14.0125 45.0796875,12.36155 45.0796875,10.325 C45.0796875,8.28844998 46.7306375,6.6375 48.7671875,6.6375 C50.8037375,6.6375 52.4546875,8.28844998 52.4546875,10.325 C52.4546875,12.36155 50.8037375,14.0125 48.7671875,14.0125 Z" id="Shape"></path>
            </g>
            <g id="fa_leaf" transform="translate(631.669191, 313.145801)" fill="#9B9B9B" fill-rule="nonzero">
                <path d="M76.5105058,1.49883268 C75.72607,-0.252140078 73.4848249,-0.322178988 72.5463035,1.3307393 C68.2038911,8.88093385 60.429572,13.5875486 51.5486381,13.5875486 L40.3424125,13.5875486 C25.4941634,13.5875486 13.4474708,25.6342412 13.4474708,40.4824903 C13.4474708,41.463035 13.5595331,42.4015564 13.6575875,43.3540856 C22.5945525,36.9525292 35.4957198,31.5175097 53.7898833,31.5175097 C55.0225681,31.5175097 56.0311284,32.52607 56.0311284,33.7587549 C56.0311284,34.9914397 55.0225681,36 53.7898833,36 C18.5743191,36 3.64202335,57.5859922 0.33618677,65.6964981 C-0.588326848,67.9797665 0.504280156,70.585214 2.78754864,71.5237354 C5.0848249,72.4762646 7.69027237,71.3696498 8.64280156,69.1003891 C8.85291829,68.5961089 11.570428,62.3906615 18.7143969,56.4093385 C23.2529183,62.5587549 31.8817121,68.4280156 43.2140078,67.2233463 C65.2062257,65.6264591 80.6848249,45.9035019 80.6848249,21.7540856 C80.6848249,14.722179 79.1719844,7.4381323 76.5105058,1.49883268 Z" id="Path"></path>
            </g>
            <g id="fa_fire_alt" transform="translate(325.566420, 716.000000)" fill="#9B9B9B" fill-rule="nonzero">
                <path d="M65.0911719,10.3 C60.9067969,14.1826172 57.1287891,18.2643945 53.7812891,22.3642773 C48.2973437,14.8102734 41.4977344,7.14763672 33.796875,0 C14.0297266,18.3408398 0,42.2380469 0,56.65 C0,82.2491211 20.1755273,103 45.0625,103 C69.9494727,103 90.125,82.2491211 90.125,56.65 C90.125,45.9335742 79.6680859,23.8308203 65.0911719,10.3 Z M61.1743555,78.8291992 C56.8169727,81.8789648 51.4436719,83.6875 45.6378516,83.6875 C31.1233008,83.6875 19.3125,74.0835547 19.3125,58.4907227 C19.3125,50.7234766 24.2029883,43.8796094 33.9558008,32.1875 C35.3499219,33.7928516 53.8376172,57.4023828 53.8376172,57.4023828 L65.6323242,43.9480078 C66.4651758,45.3260352 67.2235937,46.6738867 67.8995312,47.9654102 C73.401582,58.4645703 71.0800586,71.8988281 61.1743555,78.8291992 L61.1743555,78.8291992 Z" id="Shape"></path>
            </g>
            <g id="fa_hourglass" transform="translate(296.311181, 228.158402)" fill="#9B9B9B" fill-rule="nonzero">
                <path d="M88.40625,11.53125 L89.3671875,11.53125 C90.9592207,11.53125 92.25,10.2404707 92.25,8.6484375 L92.25,2.8828125 C92.25,1.2907793 90.9592207,0 89.3671875,0 L2.8828125,0 C1.2907793,0 0,1.2907793 0,2.8828125 L0,8.6484375 C0,10.2404707 1.2907793,11.53125 2.8828125,11.53125 L3.84375,11.53125 C3.84375,30.8854922 11.5764141,51.363791 27.1897266,61.5 C11.5069863,71.681373 3.84375,92.2259766 3.84375,111.46875 L2.8828125,111.46875 C1.2907793,111.46875 0,112.759529 0,114.351562 L0,120.117188 C0,121.709221 1.2907793,123 2.8828125,123 L89.3671875,123 C90.9592207,123 92.25,121.709221 92.25,120.117188 L92.25,114.351562 C92.25,112.759529 90.9592207,111.46875 89.3671875,111.46875 L88.40625,111.46875 C88.40625,92.1145078 80.6735859,71.636209 65.0602734,61.5 C80.7432539,51.318627 88.40625,30.7740234 88.40625,11.53125 Z M15.375,11.53125 L76.875,11.53125 C76.875,35.9438672 63.1078887,55.734375 46.125,55.734375 C29.1421113,55.734375 15.375,35.9441074 15.375,11.53125 Z M76.875,111.46875 L15.375,111.46875 C15.375,87.0561328 29.1423516,67.265625 46.125,67.265625 C63.1076484,67.265625 76.875,87.0561328 76.875,111.46875 Z" id="Shape"></path>
            </g>
            <g id="fa_shapes" transform="translate(373.250000, 84.000000)" fill="#9B9B9B" fill-rule="nonzero">
                <path d="M26.75,53.5 C11.9763829,53.5 0,65.4763829 0,80.25 C0,95.0236171 11.9763829,107 26.75,107 C41.5236171,107 53.5,95.0236171 53.5,80.25 C53.5,73.1554589 50.6817045,66.3514917 45.6651064,61.3348936 C40.6485083,56.3182955 33.8445411,53.5 26.75,53.5 Z M105.955078,42.0351172 L83.6083789,3.82232422 C82.2070123,1.45309849 79.6588958,-0.000210422114 76.90625,-0.000210422114 C74.1536042,-0.000210422114 71.6054877,1.45309849 70.2041211,3.82232422 L47.8574219,42.0351172 C44.8814844,47.1301562 48.6055859,53.5 54.5637305,53.5 L99.2487695,53.5 C105.206914,53.5 108.931016,47.1301562 105.955078,42.0351172 Z M100.3125,60.1875 L66.875,60.1875 C63.1815957,60.1875 60.1875,63.1815957 60.1875,66.875 L60.1875,100.3125 C60.1875,104.005904 63.1815957,107 66.875,107 L100.3125,107 C104.005904,107 107,104.005904 107,100.3125 L107,66.875 C107,63.1815957 104.005904,60.1875 100.3125,60.1875 Z" id="Shape"></path>
            </g>
            <g id="fa_arrow_alt_circle_left" transform="translate(18.000000, 342.999815)" fill="#9B9B9B" fill-rule="nonzero">
                <path d="M0,81.5 C0,126.522177 36.4778226,163 81.5,163 C126.522177,163 163,126.522177 163,81.5 C163,36.4778226 126.522177,0 81.5,0 C36.4778226,0 0,36.4778226 0,81.5 Z M147.225806,81.5 C147.225806,117.813508 117.813508,147.225806 81.5,147.225806 C45.1864919,147.225806 15.7741935,117.813508 15.7741935,81.5 C15.7741935,45.1864919 45.1864919,15.7741935 81.5,15.7741935 C117.813508,15.7741935 147.225806,45.1864919 147.225806,81.5 Z M123.564516,74.9274194 L123.564516,88.0725806 C123.564516,90.2415323 121.789919,92.016129 119.620968,92.016129 L81.5,92.016129 L81.5,114.034274 C81.5,117.550605 77.2606855,119.292339 74.7631048,116.827621 L42.2288306,84.2933468 C40.6842742,82.7487903 40.6842742,80.2512097 42.2288306,78.7066532 L74.7631048,46.172379 C77.2606855,43.6747984 81.5,45.4493952 81.5,48.9657258 L81.5,70.983871 L119.620968,70.983871 C121.789919,70.983871 123.564516,72.7584677 123.564516,74.9274194 Z" id="Shape"></path>
            </g>
            <g id="fa_snowman" transform="translate(398.566420, 663.000000)" fill="#9B9B9B" fill-rule="nonzero">
                <path d="M108.553801,32.5725146 L107.300195,29.4916179 C106.599025,27.7918129 104.623002,26.9631579 102.880702,27.6430799 L96.8888889,30.0865497 L96.8888889,23.9247563 C96.8888889,22.0974659 95.3590643,20.6101365 93.4892788,20.6101365 L90.0896686,20.6101365 C88.219883,20.6101365 86.6900585,22.0974659 86.6900585,23.9247563 L86.6900585,33.8898635 C86.6900585,33.9961014 86.7538012,34.1023392 86.7538012,34.208577 L74.7701754,39.0955166 C73.5165692,36.9707602 71.9442495,35.0797271 70.0957115,33.4436647 C72.9853801,29.9165692 74.7701754,25.497076 74.7701754,20.5888889 C74.7701754,9.32768031 65.6337232,0.19122807 54.3725146,0.19122807 C43.111306,0.19122807 33.9748538,9.32768031 33.9748538,20.5888889 C33.9748538,25.497076 35.7808967,29.9165692 38.6493177,33.4436647 C36.8007797,35.0797271 35.2497076,36.9707602 33.9748538,39.0955166 L21.9912281,34.208577 C22.0124756,34.1023392 22.0549708,33.9961014 22.0549708,33.8898635 L22.0549708,23.9247563 C22.0974659,22.0974659 20.5676413,20.6101365 18.6978558,20.6101365 L15.2982456,20.6101365 C13.42846,20.6101365 11.8986355,22.0974659 11.8986355,23.9247563 L11.8986355,30.0865497 L5.92807018,27.6430799 C4.18576998,26.9631579 2.20974659,27.7918129 1.508577,29.4916179 L0.25497076,32.5725146 C-0.44619883,34.2723197 0.403703704,36.205848 2.1460039,36.88577 L30.8727096,48.614425 C30.7877193,49.4643275 30.6177388,50.31423 30.6177388,51.2066277 C30.6177388,53.3526316 30.9789474,55.3711501 31.5101365,57.3471735 C25.6883041,63.1902534 22.0974659,71.2218324 22.0974659,80.1033138 C22.0974659,91.5769981 28.1317739,101.542105 37.1407407,107.2577 C39.1167641,108.511306 41.4539961,109 43.7912281,109 L64.8688109,109 C67.6947368,109 70.4569201,108.12885 72.7729045,106.514035 C82.6530214,99.6510721 88.5810916,87.5187135 86.1376218,74.0902534 C84.9690058,67.6734893 81.7818713,61.8516569 77.2986355,57.3046784 C77.8298246,55.3499025 78.1910331,53.331384 78.1910331,51.2066277 C78.1910331,50.31423 78.0210526,49.485575 77.9360624,48.614425 L106.662768,36.88577 C108.383821,36.2270955 109.233723,34.2935673 108.553801,32.5725146 Z M47.5945419,20.6101365 C45.7247563,20.6101365 44.1949318,19.0803119 44.1949318,17.2105263 C44.1949318,15.3407407 45.7247563,13.8109162 47.5945419,13.8109162 C49.4643275,13.8109162 50.994152,15.3407407 50.994152,17.2105263 C50.994152,19.0803119 49.4643275,20.6101365 47.5945419,20.6101365 Z M54.3937622,78.4035088 C52.5239766,78.4035088 50.994152,76.8736842 50.994152,75.0038986 C50.994152,73.1341131 52.5239766,71.6042885 54.3937622,71.6042885 C56.2635478,71.6042885 57.7933723,73.1341131 57.7933723,75.0038986 C57.7933723,76.8736842 56.2635478,78.4035088 54.3937622,78.4035088 Z M54.3937622,64.8050682 C52.5239766,64.8050682 50.994152,63.2752437 50.994152,61.4054581 C50.994152,59.5356725 52.5239766,58.005848 54.3937622,58.005848 C56.2635478,58.005848 57.7933723,59.5356725 57.7933723,61.4054581 C57.7933723,63.2752437 56.2635478,64.8050682 54.3937622,64.8050682 Z M54.3937622,51.2066277 C52.5239766,51.2066277 50.994152,49.6768031 50.994152,47.8070175 C50.994152,45.937232 52.5239766,44.4074074 54.3937622,44.4074074 C56.2635478,44.4074074 57.7933723,45.937232 57.7933723,47.8070175 C57.7933723,49.6768031 56.2635478,51.2066277 54.3937622,51.2066277 Z M54.3937622,32.5087719 C54.3937622,32.5087719 50.994152,27.5793372 50.994152,25.7095517 C50.994152,23.8397661 52.5239766,22.3099415 54.3937622,22.3099415 C56.2635478,22.3099415 57.7933723,23.8397661 57.7933723,25.7095517 C57.7933723,27.5793372 54.3937622,32.5087719 54.3937622,32.5087719 Z M61.1929825,20.6101365 C59.3231969,20.6101365 57.7933723,19.0803119 57.7933723,17.2105263 C57.7933723,15.3407407 59.3231969,13.8109162 61.1929825,13.8109162 C63.062768,13.8109162 64.5925926,15.3407407 64.5925926,17.2105263 C64.5925926,19.0803119 63.062768,20.6101365 61.1929825,20.6101365 Z" id="Shape"></path>
            </g>
            <g id="fa_chess" transform="translate(566.500000, 373.500000)" fill="#9B9B9B" fill-rule="nonzero">
                <path d="M10.984375,30.875 L9.5,30.875 C8.18832372,30.875 7.125,31.9383237 7.125,33.25 L7.125,35.625 C7.125,36.9366763 8.18832372,38 9.5,38 L11.8660938,38 C11.8454287,44.4055087 11.0509749,50.7850627 9.5,57 L28.5,57 C26.9490251,50.7850627 26.1545713,44.4055087 26.1339063,38 L28.5,38 C29.8116763,38 30.875,36.9366763 30.875,35.625 L30.875,33.25 C30.875,31.9383237 29.8116763,30.875 28.5,30.875 L27.015625,30.875 L32.0461719,17.4592188 C32.3199788,16.7293689 32.2182014,15.9116208 31.7738443,15.271154 C31.3294871,14.6306872 30.5991286,14.2490501 29.8196094,14.25 L21.375,14.25 L21.375,9.5 L24.9375,9.5 C25.5933381,9.5 26.125,8.96833814 26.125,8.3125 L26.125,5.9375 C26.125,5.28166186 25.5933381,4.75 24.9375,4.75 L21.375,4.75 L21.375,1.1875 C21.375,0.53166186 20.8433381,0 20.1875,0 L17.8125,0 C17.1566619,0 16.625,0.53166186 16.625,1.1875 L16.625,4.75 L13.0625,4.75 C12.4066619,4.75 11.875,5.28166186 11.875,5.9375 L11.875,8.3125 C11.875,8.96833814 12.4066619,9.5 13.0625,9.5 L16.625,9.5 L16.625,14.25 L8.17742188,14.25 C7.39790269,14.2490501 6.66754417,14.6306872 6.22318699,15.271154 C5.7788298,15.9116208 5.67705248,16.7293689 5.95085938,17.4592188 L10.984375,30.875 Z M36.6878125,68.2189063 L33.25,66.5 L33.25,64.125 C33.25,62.8133237 32.1866763,61.75 30.875,61.75 L7.125,61.75 C5.81332372,61.75 4.75,62.8133237 4.75,64.125 L4.75,66.5 L1.31367188,68.2189063 C0.508787305,68.6209677 0,69.4433288 0,70.3430469 L0,73.625 C0,74.9366763 1.06332372,76 2.375,76 L35.625,76 C36.9366763,76 38,74.9366763 38,73.625 L38,70.3430469 C38,69.4436593 37.4921204,68.6213822 36.6878125,68.2189063 Z M50.4583594,44.7984375 L49.97,57 L68.78,57 L68.2916406,44.7969531 L71.9432031,41.7109375 C73.0110805,40.8073615 73.6263769,39.4790165 73.625,38.0801563 L73.625,29.390625 C73.625,28.8987464 73.2262536,28.5 72.734375,28.5 L68.8185938,28.5 C68.3267151,28.5 67.9279688,28.8987464 67.9279688,29.390625 L67.9279688,33.25 L64.2600781,33.25 L64.2600781,29.390625 C64.2600781,28.8987464 63.8613317,28.5 63.3694531,28.5 L55.3820313,28.5 C54.8901526,28.5 54.4914063,28.8987464 54.4914063,29.390625 L54.4914063,33.25 L50.8235156,33.25 L50.8235156,29.390625 C50.8235156,28.8987464 50.4247692,28.5 49.9328906,28.5 L46.015625,28.5 C45.5237464,28.5 45.125,28.8987464 45.125,29.390625 L45.125,38.0890625 C45.1273513,39.4855314 45.7440896,40.8102158 46.81125,41.7109375 L50.4583594,44.7984375 Z M57,45.125 C57,43.8133237 58.0633237,42.75 59.375,42.75 C60.6866763,42.75 61.75,43.8133237 61.75,45.125 L61.75,49.875 L57,49.875 L57,45.125 Z M74.6878125,68.2189063 L71.25,66.5 L71.25,64.125 C71.25,62.8133237 70.1866763,61.75 68.875,61.75 L49.875,61.75 C48.5633237,61.75 47.5,62.8133237 47.5,64.125 L47.5,66.5 L44.0636719,68.2189063 C43.2587873,68.6209677 42.75,69.4433288 42.75,70.3430469 L42.75,73.625 C42.75,74.9366763 43.8133237,76 45.125,76 L73.625,76 C74.9366763,76 76,74.9366763 76,73.625 L76,70.3430469 C76,69.4436593 75.4921204,68.6213822 74.6878125,68.2189063 L74.6878125,68.2189063 Z" id="Shape"></path>
            </g>
            <g id="fa_pepper_hot" transform="translate(244.500000, 71.000000)" fill="#9B9B9B" fill-rule="nonzero">
                <path d="M38.7503906,30.834375 L38.7503906,20.3203125 L32.56875,17.4820313 C25.715625,25.6359375 23.1539062,46.875 6.5625,46.875 C2.93813133,46.875 0,49.8131313 0,53.4375 C0,57.0618687 2.93813133,60 6.5625,60 C31.48125,60 49.9980469,45.6011719 55.6851562,35.3507812 L51.3433594,30.834375 L38.7503906,30.834375 Z M54.1125,15.7910156 C57.88125,8.77851563 55.9195312,3.103125 53.7445312,0.3515625 C53.5767231,0.143428418 53.3280348,0.016841839 53.0610049,0.00363583201 C52.793975,-0.00957017502 52.5340101,0.0918608869 52.3464844,0.282421875 L49.6628906,2.97773437 C49.3451282,3.3006229 49.3013653,3.80365032 49.5585938,4.1765625 C50.3625,5.390625 51.5566406,8.28984375 49.3945313,12.6515625 C47.2820542,11.7280974 45.0015972,11.2509409 42.6960937,11.25 C39.4148438,11.25 36.3679688,12.2507812 33.75,13.8972656 L42.5003906,17.915625 L42.5003906,27.084375 L52.940625,27.084375 L59.3484375,33.75 C59.7304687,32.2710937 60.0000077,30.7464844 60.0000077,29.1433594 C60.004701,24.0622202 57.8671838,19.2145149 54.1125,15.7910156 Z" id="Shape"></path>
            </g>
            <g id="fa_caret_down" transform="translate(92.181604, 651.000000)" fill="#9B9B9B" fill-rule="nonzero">
                <path d="M3.96390533,0 L54.2059172,0 C57.6816568,0 59.4195266,4.19822485 56.9591716,6.65857988 L31.847929,31.7893491 C30.3248521,33.312426 27.8449704,33.312426 26.3218935,31.7893491 L1.21065089,6.65857988 C-1.24970414,4.19822485 0.48816568,0 3.96390533,0 Z" id="Path"></path>
            </g>
            <g id="fa_icons" transform="translate(73.500000, 278.241228)" fill="#9B9B9B" fill-rule="nonzero">
                <path d="M11.8471846,22.2783889 C12.1475757,22.5920849 12.5630594,22.7694803 12.9973865,22.7694803 C13.4317136,22.7694803 13.8471973,22.5920849 14.1475884,22.2783889 L23.9738162,12.1393468 C26.8328168,9.1940175 26.6652377,4.30883344 23.4751415,1.58897421 C20.6933287,-0.781508033 16.5546333,-0.354943105 14.0013375,2.27960314 L12.9999256,3.30945275 L11.9995293,2.27960314 C9.45029599,-0.354943105 5.3065224,-0.781508033 2.52470969,1.58897421 C-0.665386591,4.30883344 -0.826871885,9.19097061 2.0168943,12.1393468 L11.8471846,22.2783889 Z M26.4641428,32.4844626 L21.5891151,32.4844626 L20.8700485,31.0382044 C20.4629519,29.9516763 19.4242289,29.2319376 18.2639399,29.2324126 L10.9808516,29.2324126 C9.8205626,29.2319376 8.78183958,29.9516763 8.37474299,31.0382044 L7.66380145,32.4844626 L2.7887737,32.4844626 C2.04902296,32.484193 1.33949309,32.7779385 0.816410293,33.3010213 C0.293327497,33.8241041 -0.000148614569,34.533634 -0.000148614569,35.2733847 L-0.000148614569,49.2129172 C-0.000148614569,49.9520466 0.29294183,50.6610102 0.815394793,51.1838441 C1.33784776,51.706678 2.04659738,52.0005544 2.7857268,52.0008237 L26.4641428,52.0008237 C28.0030678,51.9997024 29.2500183,50.7518425 29.2500183,49.2129172 L29.2500183,35.2733847 C29.2505793,33.7340628 28.0034644,32.485584 26.4641428,32.4844626 L26.4641428,32.4844626 Z M14.6249348,47.5320482 C11.7081644,47.5320482 9.34365476,45.1675386 9.34365476,42.2507682 C9.34365476,39.3339977 11.7081644,36.9694881 14.6249348,36.9694881 C17.5417053,36.9694881 19.9062149,39.3339977 19.9062149,42.2507682 C19.9062149,45.1675386 17.5417053,47.5320482 14.6249348,47.5320482 Z M50.7204528,35.7608875 L44.5677615,35.7608875 L46.838712,30.6065613 C47.0519944,29.9311668 46.4395691,29.264913 45.6016737,29.264913 L37.9245206,29.264913 C37.2846732,29.264913 36.7402951,29.661009 36.6549821,30.189137 L34.9487224,41.049277 C34.8471593,41.6891244 35.4443502,42.256862 36.2182609,42.256862 L42.5466563,42.256862 L40.0888298,50.6865974 C39.8968756,51.3619919 40.5153947,51.9967612 41.3309462,51.9967612 C41.7649732,52.0081962 42.1778909,51.809678 42.440015,51.463555 L51.8244435,37.3554278 C52.3200713,36.6536269 51.7066303,35.7608875 50.7204528,35.7608875 L50.7204528,35.7608875 Z M48.555128,0.0340434846 L33.4659015,2.35374419 C31.979018,2.58226112 30.8750273,3.95336267 30.8750273,5.56923124 L30.8750273,16.4131211 C30.3402029,16.3032356 29.795992,16.2454132 29.2500181,16.2404639 C25.6597633,16.2404639 22.7499811,18.4220388 22.7499811,21.1154916 C22.7499811,23.8089444 25.6597633,25.9905194 29.2500181,25.9905194 C32.8250384,25.9905194 35.722633,23.8251945 35.7500551,21.1500231 L35.7500551,10.122304 L47.1251198,8.37338783 L47.1251198,13.1651339 C46.5902954,13.0552483 46.0460845,12.9974259 45.5001106,12.9924766 C41.9098558,12.9924766 39.0000736,15.1740515 39.0000736,17.8675044 C39.0000736,20.5609572 41.9098558,22.7425321 45.5001106,22.7425321 C49.0751309,22.7425321 51.9727256,20.5772073 52.0001476,17.9020358 L52.0001476,3.25054617 C52.0001476,1.27209741 50.3751383,-0.24525498 48.555128,0.0340434846 Z" id="Shape"></path>
            </g>
            <g id="fa_pen" transform="translate(176.978947, 298.999815)" fill="#9B9B9B" fill-rule="nonzero">
                <path d="M49.0032031,15.6614062 L70.5065625,37.1647656 L23.8129297,83.8583984 L4.64097656,85.9748047 C2.07441406,86.2586719 -0.0940625,84.0885156 0.191484375,81.5219531 L2.3246875,62.3365625 L49.0032031,15.6614062 Z M83.8063281,12.4599219 L73.7097266,2.36332031 C70.5603125,-0.78609375 65.4523828,-0.78609375 62.3029687,2.36332031 L52.8043359,11.8619531 L74.3076953,33.3653125 L83.8063281,23.8666797 C86.9557422,20.7155859 86.9557422,15.6093359 83.8063281,12.4599219 Z" id="Shape"></path>
            </g>
            <g id="fa_shield_alt" transform="translate(334.119052, 643.500000)" fill="#9B9B9B" fill-rule="nonzero">
                <path d="M59.3920898,11.034668 L34.0795898,0.487792969 C32.522347,-0.158214241 30.7720866,-0.158214241 29.2148437,0.487792969 L3.90234375,11.034668 C1.54248047,12.0102539 0,14.3173828 0,16.875 C0,43.0444336 15.0952148,61.1323242 29.2016602,67.012207 C30.7573242,67.6582031 32.5107422,67.6582031 34.0664062,67.012207 C45.3647461,62.3056641 63.28125,46.050293 63.28125,16.875 C63.28125,14.3173828 61.7387695,12.0102539 59.3920898,11.034668 Z M31.6538086,58.8383789 L31.640625,8.60888672 L54.8305664,18.2724609 C54.3955078,38.2324219 44.0068359,52.6948242 31.6538086,58.8383789 L31.6538086,58.8383789 Z" id="Shape"></path>
            </g>
            <g id="fa_hat_wizard" transform="translate(483.805195, 391.999815)" fill="#9B9B9B" fill-rule="nonzero">
                <path d="M89.125,80.5 L2.875,80.5 C1.2865625,80.5 0,81.7865625 0,83.375 L0,89.125 C0,90.7134375 1.2865625,92 2.875,92 L89.125,92 C90.7134375,92 92,90.7134375 92,89.125 L92,83.375 C92,81.7865625 90.7134375,80.5 89.125,80.5 Z M34.5,69 L23,63.25 L34.5,57.5 L40.25,46 L46,57.5 L57.5,63.25 L46,69 L43.125,74.75 L80.5,74.75 L64.9732031,38.5196094 C63.862977,35.9309543 63.7421231,33.0247064 64.6335937,30.3528125 L74.75,0 L41.0442187,19.2607031 C36.7922334,21.6904108 33.4268601,25.4139767 31.438125,29.8892188 L11.5,74.75 L37.375,74.75 L34.5,69 Z M46,28.75 L48.875,23 L51.75,28.75 L57.5,31.625 L51.75,34.5 L48.875,40.25 L46,34.5 L40.25,31.625 L46,28.75 Z" id="Shape"></path>
            </g>
            <g id="fa_space_shuttle" transform="translate(572.888274, 552.000000)" fill="#9B9B9B" fill-rule="nonzero">
                <path d="M132.277679,39.3401786 C124.940848,35.9008929 115.128795,33.9285714 105.357143,33.9285714 L41.5908482,33.9285714 C40.4854911,32.4654018 39.228125,31.2549107 37.8587054,30.3571429 L83.9285714,30.3571429 C51.1511161,23.6042411 48.9738839,0 21.4292411,0 L21.4285714,0 L21.4285714,28.5714286 L17.8571429,28.5714286 L17.8571429,0 C11.9397321,0 7.14285714,6.39598214 7.14285714,14.2857143 L7.14285714,28.5714286 C1.96495536,28.5714286 0,30.8107143 0,33.9285714 L0,42.8571429 C0,45.9783482 1.96852679,48.2142857 7.14285714,48.2142857 L7.14285714,51.7857143 C1.96495536,51.7857143 0,54.025 0,57.1428571 L0,66.0714286 C0,69.1926339 1.96852679,71.4285714 7.14285714,71.4285714 L7.14285714,85.7142857 C7.14285714,93.6040179 11.9397321,100 17.8571429,100 L17.8571429,71.4285714 L21.4285714,71.4285714 L21.4285714,100 L21.4292411,100 C48.9738839,100 51.1511161,76.3957589 83.9285714,69.6428571 L37.8584821,69.6428571 C39.2279018,68.7450893 40.4852679,67.5345982 41.590625,66.0714286 L105.357143,66.0714286 C115.128795,66.0714286 124.940848,64.0991071 132.277679,60.6598214 C138.902232,57.5546875 142.857143,53.5696429 142.857143,50 C142.857143,46.4303571 138.902232,42.4453125 132.277679,39.3401786 Z M108.928571,58.9285714 C107.942349,58.9285714 107.142857,58.1290799 107.142857,57.1428571 L107.142857,42.8571429 C107.142857,41.8709201 107.942349,41.0714286 108.928571,41.0714286 C116.051116,41.0714286 116.058482,58.9285714 108.928571,58.9285714 Z" id="Shape"></path>
            </g>
            <g id="fa_mail_bulk" transform="translate(394.311181, 203.258587)" fill="#9B9B9B" fill-rule="nonzero">
                <path d="M30.78125,86.1875 C25.85625,86.1875 20.93125,81.878125 18.46875,80.03125 C6.15625,71.4125 2.4625,68.334375 0,66.4875 L0,92.34375 C0,95.7431543 2.7568457,98.5 6.15625,98.5 L55.40625,98.5 C58.8056543,98.5 61.5625,95.7431543 61.5625,92.34375 L61.5625,66.4875 C59.1,68.334375 55.40625,71.4125 43.09375,80.03125 C40.63125,81.878125 35.70625,86.1875 30.78125,86.1875 Z M55.40625,49.25 L6.15625,49.25 C2.7568457,49.25 0,52.0068457 0,55.40625 L0,58.484375 C4.925,62.178125 4.309375,62.178125 22.1625,75.10625 C24.009375,76.3375 27.703125,80.03125 30.78125,80.03125 C33.859375,80.03125 37.553125,76.3375 39.4,75.721875 C57.253125,62.79375 56.6375,62.79375 61.5625,59.1 L61.5625,55.40625 C61.5625,52.0068457 58.8056543,49.25 55.40625,49.25 Z M104.65625,30.78125 L43.09375,30.78125 C39.6943457,30.78125 36.9375,33.5380957 36.9375,36.9375 L36.9375,43.09375 L55.40625,43.09375 C61.7952832,43.09375 67.0627246,47.9841211 67.662959,54.2173242 L67.71875,54.175 L67.71875,80.03125 L104.65625,80.03125 C108.055654,80.03125 110.8125,77.2744043 110.8125,73.875 L110.8125,36.9375 C110.8125,33.5380957 108.055654,30.78125 104.65625,30.78125 Z M98.5,55.40625 L86.1875,55.40625 L86.1875,43.09375 L98.5,43.09375 L98.5,55.40625 Z M30.78125,36.9375 C30.78125,30.1483105 36.3045605,24.625 43.09375,24.625 L86.1875,24.625 L86.1875,6.15625 C86.1875,2.7568457 83.4306543,0 80.03125,0 L18.46875,0 C15.0693457,0 12.3125,2.7568457 12.3125,6.15625 L12.3125,43.09375 L30.78125,43.09375 L30.78125,36.9375 Z" id="Shape"></path>
            </g>
            <g id="fa_toggle_off" transform="translate(136.000000, 303.500000)" fill="#9B9B9B" fill-rule="nonzero">
                <path d="M40,0 L20,0 C8.95427083,0 0,8.95427083 0,20 C0,31.0457292 8.95427083,40 20,40 L40,40 C51.0457292,40 60,31.0457292 60,20 C60,8.95427083 51.0457292,0 40,0 Z M6.66666667,20 C6.66666667,12.6311458 12.6301042,6.66666667 20,6.66666667 C27.3688542,6.66666667 33.3333333,12.6301042 33.3333333,20 C33.3333333,27.3688542 27.3698958,33.3333333 20,33.3333333 C12.6311458,33.3333333 6.66666667,27.3698958 6.66666667,20 Z M40,33.3333333 L34.9057292,33.3333333 C41.6991667,25.7439583 41.7011458,14.2583333 34.9057292,6.66666667 L40,6.66666667 C47.3688542,6.66666667 53.3333333,12.6301042 53.3333333,20 C53.3333333,27.36875 47.3698958,33.3333333 40,33.3333333 Z" id="Shape"></path>
            </g>
            <g id="fa_star_half" transform="translate(17.965657, 268.999815)" fill="#9B9B9B" fill-rule="nonzero">
                <path d="M43.96875,63.2132812 L23.5757813,73.9429687 L27.4640625,51.2367188 L10.959375,35.1585938 L33.7640625,31.8445313 L43.96875,11.1726563 L43.96875,0 C42.0984375,0 40.228125,0.96796875 39.2601563,2.9203125 L28.546875,24.6421875 L4.57734375,28.1203125 C0.27890625,28.74375 -1.44375,34.0429687 1.6734375,37.078125 L19.0148438,53.9765625 L14.9132813,77.8476562 C14.175,82.1296875 18.6867188,85.3945312 22.5257813,83.3765625 L43.96875,72.121875 L43.96875,63.2132812 Z" id="Path"></path>
            </g>
            <g id="fa_hands_helping" transform="translate(224.713843, 635.500000)" fill="#9B9B9B" fill-rule="nonzero">
                <path d="M70.6757812,27.75 L48.7070312,27.75 L48.7070312,35.84375 C48.7070312,41.5816406 44.0386719,46.25 38.3007812,46.25 C32.5628906,46.25 27.8945312,41.5816406 27.8945312,35.84375 L27.8945312,18.26875 L18.5144531,23.9054687 C15.725,25.5675781 14.0195312,28.5882813 14.0195312,31.8257812 L14.0195312,38.6621094 L2.45703125,45.3394531 C0.245703125,46.6113281 -0.5203125,49.4441406 0.766015625,51.6554688 L12.3285156,71.6875 C13.6003906,73.8988281 16.4332031,74.6503906 18.6445312,73.3785156 L33.5890625,64.75 L53.3320312,64.75 C58.4339844,64.75 62.5820312,60.6019531 62.5820312,55.5 L64.8945312,55.5 C67.4527344,55.5 69.5195312,53.4332031 69.5195312,50.875 L69.5195312,41.625 L70.6757812,41.625 C72.5980469,41.625 74.1445312,40.0785156 74.1445312,38.15625 L74.1445312,31.21875 C74.1445312,29.2964844 72.5980469,27.75 70.6757812,27.75 Z M92.0230469,22.3445312 L80.4605469,2.3125 C79.1886719,0.101171875 76.3558594,-0.650390625 74.1445312,0.621484375 L59.2,9.25 L44.4289062,9.25 C42.6945312,9.25 41.0035156,9.74140625 39.5292969,10.6519531 L34.6875,13.6726562 C33.3289062,14.5109375 32.5195312,15.9996094 32.5195312,17.5894531 L32.5195312,35.84375 C32.5195312,39.0378906 35.1066406,41.625 38.3007812,41.625 C41.4949219,41.625 44.0820312,39.0378906 44.0820312,35.84375 L44.0820312,23.125 L70.6757812,23.125 C75.1417969,23.125 78.7695312,26.7527344 78.7695312,31.21875 L78.7695312,35.3378906 L90.3320312,28.6605469 C92.5433594,27.3742188 93.2949219,24.5558594 92.0230469,22.3445312 Z" id="Shape"></path>
            </g>
            <g id="fa_edit" transform="translate(493.095232, 134.667700)" fill="#9B9B9B" fill-rule="nonzero">
                <path d="M49.309144,42.3963035 L53.231323,38.4741245 C53.8441634,37.861284 54.9105058,38.2902724 54.9105058,39.1727626 L54.9105058,56.9941634 C54.9105058,60.2422179 52.2752918,62.8774319 49.0272374,62.8774319 L5.88326848,62.8774319 C2.63521401,62.8774319 0,60.2422179 0,56.9941634 L0,13.8501946 C0,10.6021401 2.63521401,7.96692607 5.88326848,7.96692607 L39.405642,7.96692607 C40.2758755,7.96692607 40.7171206,9.02101167 40.1042802,9.64610895 L36.1821012,13.5682879 C35.998249,13.7521401 35.7531128,13.8501946 35.483463,13.8501946 L5.88326848,13.8501946 L5.88326848,56.9941634 L49.0272374,56.9941634 L49.0272374,43.0826848 C49.0272374,42.8252918 49.1252918,42.5801556 49.309144,42.3963035 Z M68.5033074,17.6620623 L36.3169261,49.8484436 L25.2367704,51.0741245 C22.0254864,51.429572 19.2922179,48.7208171 19.6476654,45.4850195 L20.8733463,34.4048638 L53.0597276,2.21848249 C55.866537,-0.588326848 60.4015564,-0.588326848 63.1961089,2.21848249 L68.4910506,7.51342412 C71.2978599,10.3202335 71.2978599,14.8675097 68.5033074,17.6620623 L68.5033074,17.6620623 Z M56.3935798,21.4494163 L49.2723735,14.3282101 L26.4992218,37.1136187 L25.6044747,45.1173152 L33.6081712,44.2225681 L56.3935798,21.4494163 Z M64.3359922,11.6807393 L59.0410506,6.38579767 C58.5385214,5.88326848 57.7173152,5.88326848 57.2270428,6.38579767 L53.4396887,10.1731518 L60.5608949,17.294358 L64.348249,13.5070039 C64.8385214,12.9922179 64.8385214,12.1832685 64.3359922,11.6807393 L64.3359922,11.6807393 Z" id="Shape"></path>
            </g>
            <g id="fa_square_root_alt" transform="translate(169.897035, 686.500000)" fill="#9B9B9B" fill-rule="nonzero">
                <path d="M37.9385547,16.6885547 L36.4364453,15.1864453 C36.0214062,14.7714062 35.3487109,14.7714062 34.9336719,15.1864453 L31.875,18.2451172 L28.8163281,15.1864453 C28.4012891,14.7714062 27.7285937,14.7714062 27.3135547,15.1864453 L25.8114453,16.6885547 C25.3964062,17.1035937 25.3964062,17.7762891 25.8114453,18.1913281 L28.8701172,21.25 L25.8114453,24.3086719 C25.3964062,24.7237109 25.3964062,25.3964063 25.8114453,25.8114453 L27.3135547,27.3135547 C27.7285937,27.7285938 28.4012891,27.7285938 28.8163281,27.3135547 L31.875,24.2548828 L34.9336719,27.3135547 C35.3487109,27.7285938 36.0214062,27.7285938 36.4364453,27.3135547 L37.9385547,25.8114453 C38.3535937,25.3964063 38.3535937,24.7237109 37.9385547,24.3086719 L34.8798828,21.25 L37.9385547,18.1913281 C38.3535937,17.7762891 38.3535937,17.1035937 37.9385547,16.6885547 Z M36.65625,0 L20.4298828,0 C19.4643359,0 18.6196484,0.65078125 18.3746094,1.58511719 L12.7440234,23.0210547 L8.86523437,15.9753516 C8.49162946,15.2968003 7.77847184,14.8752155 7.00386719,14.875 L1.59375,14.875 C0.713867187,14.875 0,15.5882031 0,16.46875 L0,19.65625 C0,20.5361328 0.713867187,21.25 1.59375,21.25 L4.49039062,21.25 L10.3925781,32.1226953 C11.2219922,33.4355469 12.3714844,34 13.6092969,34 C14.7561328,34 16.5603906,33.4023438 17.2138281,31.2454688 L23.7090234,6.375 L36.65625,6.375 C37.5361328,6.375 38.25,5.66113281 38.25,4.78125 L38.25,1.59375 C38.25,0.713203125 37.5361328,0 36.65625,0 Z" id="Shape"></path>
            </g>
            <g id="fa_wave_square" transform="translate(652.173465, 505.999815)" fill="#9B9B9B" fill-rule="nonzero">
                <path d="M31.875,30 L21.6964286,30 C20.3650278,30 19.2857143,28.9206865 19.2857143,27.5892857 L19.2857143,4.28571429 L12.8571429,4.28571429 L12.8571429,14.7321429 C12.8571429,16.0635436 11.7778293,17.1428571 10.4464286,17.1428571 L1.07142857,17.1428571 C0.479694911,17.1428571 0,16.6631622 0,16.0714286 L0,13.9285714 C0,13.3368378 0.479694911,12.8571429 1.07142857,12.8571429 L8.57142857,12.8571429 L8.57142857,2.41071429 C8.57142857,1.07931355 9.65074212,0 10.9821429,0 L21.1607143,0 C22.492115,0 23.5714286,1.07931355 23.5714286,2.41071429 L23.5714286,25.7142857 L30,25.7142857 L30,15.2678571 C30,13.9364564 31.0793135,12.8571429 32.4107143,12.8571429 L41.7857143,12.8571429 C42.3774479,12.8571429 42.8571429,13.3368378 42.8571429,13.9285714 L42.8571429,16.0714286 C42.8571429,16.6631622 42.3774479,17.1428571 41.7857143,17.1428571 L34.2857143,17.1428571 L34.2857143,27.5892857 C34.2857143,28.9206865 33.2064007,30 31.875,30 Z" id="Path"></path>
            </g>
            <g id="fa_mortar_pestle" transform="translate(248.148936, 684.000000)" fill="#9B9B9B" fill-rule="nonzero">
                <path d="M80.3247656,9.75511719 C83.0826562,6.99722656 82.3283203,2.34789063 78.8401172,0.603789063 C76.9038087,-0.3638904 74.5870259,-0.154964574 72.8550781,1.14351563 L40.2136328,25.625 L64.4564844,25.625 L80.3247656,9.75511719 Z M79.4375,30.75 L2.5625,30.75 C1.14671875,30.75 0,31.8967188 0,33.3125 L0,38.4375 C0,39.8532813 1.14671875,41 2.5625,41 L5.125,41 C5.125,53.9694531 13.1648438,65.0410547 24.5247266,69.5590625 C22.4811328,72.2608984 21.0461328,75.4528125 20.5288281,78.9586328 C20.295,80.5473828 21.4961719,81.9983984 23.1025391,81.9983984 L58.8974609,81.9983984 C60.5038281,81.9983984 61.705,80.5473828 61.4711719,78.9586328 C60.9554687,75.4528125 59.5204687,72.2608984 57.4752734,69.5590625 C68.8351562,65.0410547 76.875,53.9694531 76.875,41 L79.4375,41 C80.8532812,41 82,39.8532813 82,38.4375 L82,33.3125 C82,31.8967188 80.8532812,30.75 79.4375,30.75 Z" id="Shape"></path>
            </g>
            <g id="fa_bacterium" transform="translate(18.656586, 501.667515)" fill="#9B9B9B" fill-rule="nonzero">
                <path d="M41.9925085,8.54066812 C41.6825738,7.5101352 40.5972496,6.92465554 39.5658181,7.23158659 L38.3233001,7.59974009 C37.4301562,5.91956132 36.0375725,4.55798773 34.3377097,3.70290104 L34.649161,2.51379811 C34.8239942,1.83853979 34.6253007,1.12130298 34.1279265,0.632263838 C33.6305522,0.143224697 32.9100601,-0.0433200929 32.2378527,0.142899086 C31.5656452,0.329118265 31.0438467,0.859810289 30.8690135,1.53506861 L30.5600275,2.71595383 C29.9458563,2.69482528 29.3311135,2.73529424 28.7250124,2.83675419 C27.4949604,3.05011142 26.2785486,3.33576104 25.0821007,3.69221802 L24.7287391,2.70609257 C24.3571786,1.70758626 23.2532711,1.19182482 22.2490057,1.54752553 C21.2447403,1.90322624 20.7115612,2.9988273 21.0513129,4.00859993 L21.4046745,4.99883423 C19.7240135,5.72882853 18.1102379,6.60404543 16.5816993,7.61453197 L15.9242824,6.74098918 C15.2763708,5.88203932 14.0571621,5.7059803 13.1927149,6.34653901 C12.7780812,6.65346523 12.5030163,7.11311571 12.4285062,7.62357932 C12.3539961,8.13404292 12.4861975,8.65314024 12.7957994,9.06577992 L13.4532164,9.93932271 C12.0641548,11.1259218 10.7801608,12.4302617 9.61554485,13.8378053 L8.71159653,13.1803883 C8.15264001,12.7439618 7.40052375,12.6461593 6.74854092,12.9251198 C6.0965581,13.2040802 5.6479489,13.8156307 5.57765173,14.5212926 C5.50735456,15.2269546 5.82650084,15.9149879 6.41063716,16.317089 L7.32198142,16.9794366 C6.33702428,18.5122526 5.48686645,20.1276075 4.78106486,21.8073424 L3.7185147,21.4432978 C3.05862413,21.2010414 2.31934886,21.334005 1.78522571,21.7910129 C1.25110256,22.2480208 1.00539216,22.9578332 1.14266504,23.6472531 C1.27993791,24.3366731 1.77879559,24.8982319 2.44723464,25.1157933 L3.51553721,25.4839468 C3.20109949,26.5796138 2.94597995,27.6914412 2.75128999,28.8145855 C2.64362845,29.5037442 2.61495492,30.2029372 2.66582578,30.8985973 L1.39701105,31.2733249 C0.368810038,31.5799018 -0.21618194,32.661953 0.0903948804,33.690154 C0.396971701,34.718355 1.47902292,35.303347 2.50722394,34.9967702 L3.73988075,34.6319038 C4.63453238,36.3081465 6.0282047,37.664773 7.7279364,38.513951 L7.41155449,39.7260635 C7.28249962,40.2254959 7.35719943,40.7557427 7.61921055,41.2000827 C7.88122167,41.6444228 8.3090666,41.9664328 8.80856553,42.0952299 C8.96977535,42.13589 9.13537011,42.1568669 9.30162825,42.1568669 C10.1892674,42.1586922 10.9661466,41.560833 11.191702,40.7023277 L11.5047969,39.5000764 C11.6173795,39.5041853 11.7324275,39.5288384 11.8441884,39.5288384 C13.6241896,39.5194539 15.3627127,38.9904996 16.8463097,38.0069182 L17.7872377,38.9716776 C18.5392843,39.7189675 19.750922,39.7274415 20.5133473,38.9907435 C21.2757727,38.2540455 21.3088788,37.0428306 20.587834,36.265585 L19.5860949,35.238371 C20.2521275,34.2051207 20.7024354,33.0479047 20.9099683,31.8362382 C21.0129601,31.2600691 21.154625,30.6914874 21.3340022,30.13435 L22.3201277,30.597829 C22.9501586,30.9074014 23.6981399,30.8533267 24.2770917,30.4563521 C24.8560434,30.0593774 25.1760573,29.3811508 25.1143528,28.6818894 C25.0526482,27.982628 24.6188076,27.3709234 23.9792837,27.08147 L23.0161679,26.6303176 C23.0893055,26.5218438 23.1468295,26.402687 23.2232542,26.2966785 C23.4919214,25.939981 23.7788276,25.5973942 24.0828269,25.2702863 C24.4806971,24.8229644 24.9087464,24.4034266 25.3639682,24.0146199 C25.7113351,23.7111165 26.0742246,23.4258519 26.4511715,23.1599778 C26.5744372,23.0778007 26.7059206,23.0046631 26.8316516,22.9241295 L27.2614379,23.8938195 C27.5415233,24.5320854 28.1408437,24.9724437 28.8336409,25.0490155 C29.5264381,25.1255874 30.2074597,24.8267398 30.6201715,24.2650458 C31.0328833,23.7033518 31.1145845,22.964146 30.8344991,22.3258801 L30.3940297,21.3307151 C30.8393962,21.1943135 31.2917433,21.081844 31.7491305,20.9937889 C33.0793182,20.7657538 34.3423315,20.2453923 35.4471009,19.4702251 L36.5425219,20.4563506 C37.0508516,20.9576611 37.7928056,21.1405086 38.4758651,20.9328046 C39.1589247,20.7251006 39.6734953,20.1601705 39.8167052,19.4607406 C39.9599151,18.7613106 39.7087866,18.0396019 39.1623285,17.5801514 L38.0989565,16.6211444 C39.0533889,15.032279 39.5003332,13.1900311 39.3800978,11.3404426 L40.6776746,10.9558537 C41.1729605,10.8109292 41.5901047,10.4746613 41.8368506,10.02142 C42.0835965,9.56817862 42.139612,9.03531125 41.9925085,8.54066812 L41.9925085,8.54066812 Z M13.1483393,30.3233574 C10.9698511,30.3233574 9.20383748,28.5573438 9.20383748,26.3788556 C9.20383748,24.2003675 10.9698511,22.4343539 13.1483393,22.4343539 C15.3268274,22.4343539 17.092841,24.2003675 17.092841,26.3788556 C17.092841,28.5573438 15.3268274,30.3233574 13.1483393,30.3233574 Z M19.7225089,19.147269 C18.6332648,19.147269 17.750258,18.2642622 17.750258,17.1750182 C17.750258,16.0857741 18.6332648,15.2027673 19.7225089,15.2027673 C20.811753,15.2027673 21.6947598,16.0857741 21.6947598,17.1750182 C21.6947598,18.2642622 20.811753,19.147269 19.7225089,19.147269 Z" id="Shape"></path>
            </g>
            <g id="fa_music" transform="translate(134.571850, 668.000000)" fill="#9B9B9B" fill-rule="nonzero">
                <path d="M27.639545,0.088727652 L8.83809678,5.6409633 C8.05485065,5.88700074 7.52177697,6.61275165 7.5212844,7.43373195 L7.5212844,22.7941925 C6.90556648,22.6447407 6.27454956,22.5674411 5.6409633,22.5638532 C2.52668148,22.5638532 -8.35030312e-16,24.2479158 -8.35030312e-16,26.3244954 C-8.35030312e-16,28.401075 2.52668148,30.0851376 5.6409633,30.0851376 C8.75524513,30.0851376 11.2819266,28.401075 11.2819266,26.3244954 L11.2819266,12.5934506 L26.3244954,8.18644799 L26.3244954,19.0341379 C25.7088584,18.8841721 25.0778041,18.8066707 24.4441743,18.803211 C21.3298925,18.803211 18.803211,20.4872736 18.803211,22.5638532 C18.803211,24.6404328 21.3298925,26.3244954 24.4441743,26.3244954 C27.5584561,26.3244954 30.0851376,24.6410204 30.0851376,22.5638532 L30.0851376,1.8803211 C30.084581,1.28164876 29.7989741,0.719021426 29.3160282,0.365224681 C28.8330823,0.0114279364 28.2105244,-0.0912485566 27.639545,0.088727652 Z" id="Path"></path>
            </g>
            <g id="fa_tablets" transform="translate(574.311181, 214.658402) rotate(-360.000000) translate(-574.311181, -214.658402) translate(516.811181, 168.658402)" fill="#9B9B9B" fill-rule="nonzero">
                <path d="M28.5594962,34.4498923 C14.0834016,34.4498923 2.23121064,44.8919581 0.0178496851,58.4934182 C-0.124947796,59.3502031 0.606889294,60.1534389 1.49937355,60.1534389 L55.6374686,60.1534389 C56.5299528,60.1534389 57.2617899,59.3502031 57.1189924,58.4934182 C54.8877818,44.8919581 43.0355909,34.4498923 28.5594962,34.4498923 Z M55.6196189,65.8653381 L1.49937355,65.8653381 C0.606889294,65.8653381 -0.124947796,66.668574 0.0178496851,67.5253589 C2.23121064,81.1268189 14.0834016,91.5688847 28.5594962,91.5688847 C43.0355909,91.5688847 54.8877818,81.1268189 57.1011427,67.5253589 C57.2439402,66.668574 56.5121031,65.8653381 55.6196189,65.8653381 L55.6196189,65.8653381 Z M105.920032,8.49645012 C95.8349595,-1.58862198 80.1807856,-2.46325655 68.989033,5.6405005 C68.2750456,6.15814137 68.2214966,7.22912248 68.8462356,7.83601177 L106.56262,45.5702461 C107.187359,46.1949851 108.25834,46.1414361 108.758132,45.4274487 C116.879738,34.2356961 116.005104,18.5815222 105.920032,8.49645012 Z M64.794357,11.90574 C64.169618,11.281001 63.0986369,11.3345501 62.5988458,12.0485375 C54.4950887,23.24029 55.3697233,38.8944639 65.4369457,48.979536 C75.5220178,59.0646081 91.1761917,59.9392427 102.367944,51.8176359 C103.081932,51.2999951 103.135481,50.229014 102.510742,49.6221247 L64.794357,11.90574 Z" id="Shape"></path>
            </g>
            <g id="fa_ruler" transform="translate(150.071850, 527.167515)" fill="#9B9B9B" fill-rule="nonzero">
                <path d="M206.497297,49.0378378 L180.681081,5.09189189 C177.827027,0.227027027 171.502703,-1.42702703 166.572973,1.36216216 L144.194595,14.0432432 L163.556757,47.027027 C164.27027,48.2594595 163.848649,49.7837838 162.616216,50.4972973 L158.140541,53.027027 C156.908108,53.7405405 155.318919,53.3189189 154.605405,52.0864865 L135.243243,19.1351351 L117.340541,29.2864865 L126.389189,44.6594595 C127.102703,45.8918919 126.681081,47.4162162 125.448649,48.1297297 L120.972973,50.6594595 C119.740541,51.372973 118.151351,50.9513514 117.437838,49.7189189 L108.389189,34.3783784 L90.4864865,44.5297297 L109.881081,77.5135135 C110.594595,78.7135135 110.172973,80.2702703 108.940541,80.9837838 L104.464865,83.5135135 C103.232432,84.227027 101.643243,83.8054054 100.92973,82.572973 L81.5675676,49.5891892 L63.6648649,59.7405405 L72.7135135,75.1135135 C73.427027,76.3459459 73.0054054,77.8702703 71.772973,78.5837838 L67.2972973,81.1135135 C66.0648649,81.827027 64.4756757,81.4054054 63.7621622,80.172973 L54.7135135,64.7675676 L36.8108108,74.9189189 L56.172973,107.902703 C56.8864865,109.102703 56.4648649,110.659459 55.2324324,111.372973 L50.7567568,113.902703 C49.5243243,114.616216 47.9351351,114.194595 47.2216216,112.962162 L27.8594595,80.0756757 L5.48108108,92.7567568 C0.551351351,95.5783784 -1.16756757,101.772973 1.68648649,106.637838 L27.5027027,150.616216 C30.3567568,155.481081 36.6810811,157.135135 41.6108108,154.345946 L202.735135,62.9189189 C207.664865,60.1297297 209.351351,53.9027027 206.497297,49.0378378 Z" id="Path"></path>
            </g>
            <g id="fa_project_diagram" transform="translate(486.566420, 493.950017)" fill="#9B9B9B" fill-rule="nonzero">
                <path d="M72,60 L48,60 C44.686875,60 42,62.686875 42,66 L42,90 C42,93.313125 44.686875,96 48,96 L72,96 C75.313125,96 78,93.313125 78,90 L78,66 C78,62.686875 75.313125,60 72,60 Z M36,6 C36,2.686875 33.313125,0 30,0 L6,0 C2.686875,0 0,2.686875 0,6 L0,30 C0,33.313125 2.686875,36 6,36 L23.9475,36 L37.665,60.0075 C39.74625,56.43375 43.575,54 48,54 L48.0525,54 L36,32.908125 L36,24 L78,24 L78,12 L36,12 L36,6 Z M114,0 L90,0 C86.686875,0 84,2.686875 84,6 L84,30 C84,33.313125 86.686875,36 90,36 L114,36 C117.313125,36 120,33.313125 120,30 L120,6 C120,2.686875 117.313125,0 114,0 Z" id="Shape"></path>
            </g>
            <g id="fa_code" transform="translate(335.877763, 481.167515)" fill="#9B9B9B" fill-rule="nonzero">
                <path d="M46.8143916,85.5504156 L36.6118983,82.5900199 C35.5414727,82.2889628 34.9393584,81.168361 35.2404156,80.0979355 L58.0705851,1.45510971 C58.3716423,0.384684176 59.492244,-0.217430186 60.5626695,0.0836269947 L70.7651629,3.04402261 C71.8355884,3.34507979 72.4377028,4.46568152 72.1366456,5.53610705 L49.3064761,84.1789328 C48.9886935,85.2493584 47.8848172,85.8681981 46.8143916,85.5504156 L46.8143916,85.5504156 Z M27.7474368,66.784518 L35.0229854,59.0239328 C35.7923537,58.2043883 35.7421775,56.8998072 34.8891822,56.1471642 L19.7359707,42.8170213 L34.8891822,29.4868783 C35.7421775,28.7342354 35.8090791,27.4296543 35.0229854,26.6101097 L27.7474368,18.8495246 C26.9947939,18.0467055 25.7236636,17.9965293 24.904119,18.7658976 L0.802819149,41.3451862 C-0.0501761968,42.1312799 -0.0501761968,43.4860372 0.802819149,44.272131 L24.904119,66.8681449 C25.7236636,67.6375133 26.9947939,67.6040625 27.7474368,66.784518 L27.7474368,66.784518 Z M82.4729422,66.8848703 L106.574242,44.2888564 C107.427237,43.5027626 107.427237,42.1480053 106.574242,41.3619116 L82.4729422,18.7491722 C81.670123,17.9965293 80.3989927,18.0299801 79.6296243,18.8327992 L72.3540758,26.5933843 C71.5847074,27.4129289 71.6348836,28.71751 72.487879,29.4701529 L87.6410904,42.8170213 L72.487879,56.1471642 C71.6348836,56.8998072 71.567982,58.2043883 72.3540758,59.0239328 L79.6296243,66.784518 C80.3822673,67.6040625 81.6533976,67.6375133 82.4729422,66.8848703 Z" id="Shape"></path>
            </g>
            <g id="fa_ring" transform="translate(396.110680, 312.416962)" fill="#9B9B9B" fill-rule="nonzero">
                <path d="M16,0 C6.87875,0 0,3.869375 0,9 L0,15.133125 C0,20.03 7.16375,24 16,24 C24.83625,24 32,20.03 32,15.133125 L32,9 C32,3.869375 25.12125,0 16,0 Z M16,4 C22.6275,4 28,6.23875 28,9 C28,9.57875 27.751875,10.1325 27.318125,10.649375 C24.509375,9.013125 20.514375,8 16,8 C11.485625,8 7.490625,9.013125 4.681875,10.649375 C4.248125,10.1325 4,9.57875 4,9 C4,6.23875 9.3725,4 16,4 Z M7.526875,12.54 C9.69,11.620625 12.6025,11 16,11 C19.3975,11 22.31,11.620625 24.473125,12.54 C22.3025,13.441875 19.308125,14 16,14 C12.691875,14 9.6975,13.441875 7.526875,12.54 Z" id="Shape"></path>
            </g>
            <g id="fa_smile" transform="translate(274.013700, 298.916962)" fill="#9B9B9B" fill-rule="nonzero">
                <path d="M10.9721987,0 C4.91094378,0 0,4.91094378 0,10.9721987 C0,17.0334537 4.91094378,21.9443975 10.9721987,21.9443975 C17.0334537,21.9443975 21.9443975,17.0334537 21.9443975,10.9721987 C21.9443975,4.91094378 17.0334537,0 10.9721987,0 Z M10.9721987,19.8207461 C6.09222486,19.8207461 2.12365137,15.8521726 2.12365137,10.9721987 C2.12365137,6.09222486 6.09222486,2.12365137 10.9721987,2.12365137 C15.8521726,2.12365137 19.8207461,6.09222486 19.8207461,10.9721987 C19.8207461,15.8521726 15.8521726,19.8207461 10.9721987,19.8207461 Z M7.43277978,10.2643149 C8.21587622,10.2643149 8.84854736,9.6316438 8.84854736,8.84854736 C8.84854736,8.06545092 8.21587622,7.43277978 7.43277978,7.43277978 C6.64968334,7.43277978 6.0170122,8.06545092 6.0170122,8.84854736 C6.0170122,9.6316438 6.64968334,10.2643149 7.43277978,10.2643149 Z M14.5116177,10.2643149 C15.2947141,10.2643149 15.9273852,9.6316438 15.9273852,8.84854736 C15.9273852,8.06545092 15.2947141,7.43277978 14.5116177,7.43277978 C13.7285212,7.43277978 13.0958501,8.06545092 13.0958501,8.84854736 C13.0958501,9.6316438 13.7285212,10.2643149 14.5116177,10.2643149 Z M14.6885886,13.4763376 C13.7683397,14.582406 12.4100877,15.2195015 10.9721987,15.2195015 C9.53430978,15.2195015 8.17605776,14.5868303 7.25580883,13.4763376 C6.87974557,13.0250617 6.20725597,12.9675462 5.76040433,13.3391851 C5.30912842,13.7152484 5.25161286,14.3833137 5.62325185,14.8345896 C6.95053395,16.4273282 8.90163864,17.3387286 10.9721987,17.3387286 C13.0427588,17.3387286 14.9938635,16.4273282 16.3211456,14.8345896 C16.6972089,14.3833137 16.635269,13.7152484 16.1839931,13.3391851 C15.7371415,12.9675462 15.0646519,13.0250617 14.6885886,13.4763376 L14.6885886,13.4763376 Z" id="Shape"></path>
            </g>
            <g id="fa_carrot" transform="translate(183.911181, 359.499815)" fill="#9B9B9B" fill-rule="nonzero">
                <path d="M57.0773437,29.9742187 C46.9902344,25.0550781 35.1613281,27.9644531 28.328125,36.2523437 L38.89375,46.8179687 C40.0996094,48.0238281 40.0996094,49.9570312 38.89375,51.14375 C38.3003906,51.7371094 37.515625,52.0433594 36.7308594,52.0433594 C35.9460937,52.0433594 35.1613281,51.7371094 34.5679687,51.14375 L24.959375,41.5351562 L0.440234375,91.8175781 C-0.11484375,92.9660156 -0.153125,94.3632812 0.440234375,95.5882812 C1.47382812,97.7128906 4.0578125,98.5933594 6.18242187,97.5597656 L31.7542969,85.0800781 L22.3371094,75.6628906 C21.13125,74.4761719 21.13125,72.5238281 22.3371094,71.3371094 C23.5429687,70.1503906 25.4761719,70.1503906 26.6628906,71.3371094 L37.5730469,82.2472656 L57.0964844,72.7152344 C61.6902344,70.4757812 65.6140625,66.7242187 68.0257812,61.7859375 C73.7871094,49.9761719 68.8871094,35.7355469 57.0773437,29.9742187 Z M74.7058594,23.2941406 C78.4382812,15.5039062 76.5050781,6.29726562 68.90625,0 C59.2785156,7.98164062 58.8574219,20.5761719 67.3941406,29.0746094 L68.9253906,30.6058594 C77.4238281,39.1425781 90.0375,38.7214844 98,29.09375 C91.7027344,21.4949219 82.4960937,19.5617187 74.7058594,23.2941406 L74.7058594,23.2941406 Z" id="Shape"></path>
            </g>
            <g id="fa_key" transform="translate(260.400000, 326.567342)" fill="#9B9B9B" fill-rule="nonzero">
                <path d="M31,10.3125586 C31,16.0079883 26.2290273,20.625 20.34375,20.625 C19.6644141,20.625 19.0002148,20.5627734 18.3561777,20.4451758 L16.9023262,22.0280273 C16.6265696,22.3282484 16.2313066,22.5000145 15.8162363,22.5 L13.5625,22.5 L13.5625,24.84375 C13.5625,25.6204102 12.9119238,26.25 12.109375,26.25 L9.6875,26.25 L9.6875,28.59375 C9.6875,29.3704102 9.03692383,30 8.234375,30 L1.453125,30 C0.650576172,30 0,29.3704102 0,28.59375 L0,24.0199805 C0,23.6470313 0.153123047,23.2893164 0.425583984,23.0255859 L10.2221895,13.545 C9.87567969,12.5281641 9.6875,11.4416602 9.6875,10.3125 C9.6875,4.61707031 14.4584121,0 20.3436895,0 C26.2463438,0 31,4.60025391 31,10.3125586 Z M20.34375,7.5 C20.34375,9.05332031 21.6449023,10.3125 23.25,10.3125 C24.8550977,10.3125 26.15625,9.05332031 26.15625,7.5 C26.15625,5.94667969 24.8550977,4.6875 23.25,4.6875 C21.6449023,4.6875 20.34375,5.94667969 20.34375,7.5 Z" id="Shape"></path>
            </g>
            <g id="fa_eject" transform="translate(676.867222, 537.167515)" fill="#9B9B9B" fill-rule="nonzero">
                <path d="M39,30.6428571 L39,36.2142857 C39,37.7527835 37.7527835,39 36.2142857,39 L2.78571429,39 C1.24721652,39 3.55271368e-15,37.7527835 3.55271368e-15,36.2142857 L3.55271368e-15,30.6428571 C3.55271368e-15,29.1043594 1.24721652,27.8571429 2.78571429,27.8571429 L36.2142857,27.8571429 C37.7527835,27.8571429 39,29.1043594 39,30.6428571 Z M4.18318527,25.0714286 L34.8161183,25.0714286 C38.4419866,25.0714286 40.3510714,20.7471295 37.8963348,18.0692746 L22.5802165,1.35437946 C20.9249799,-0.451372768 18.0751071,-0.451459821 16.4196964,1.35437946 L1.10296875,18.0692746 C-1.34715402,20.7420804 0.550526786,25.0714286 4.18318527,25.0714286 Z" id="Shape"></path>
            </g>
            <g id="fa_paw" transform="translate(511.299914, 597.853829)" fill="#9B9B9B" fill-rule="nonzero">
                <path d="M27.5346968,20.2026726 C19.2222914,20.2026726 7.43670122,33.0528285 7.43670122,41.1642539 C7.43670122,44.8174833 10.2430932,47 14.9462335,47 C20.0586611,47 23.4344963,44.3746993 27.5346968,44.3746993 C31.6704874,44.3746993 35.0557435,47 40.12316,47 C44.8263003,47 47.6326923,44.8174833 47.6326923,41.1642539 C47.6326923,33.0528285 35.8471021,20.2026726 27.5346968,20.2026726 Z M12.1178593,18.8826949 C11.0292179,15.2556347 7.67536491,12.9066815 4.62716892,13.6352339 C1.57897293,14.3637862 -0.00897807093,17.8945434 1.07966335,21.5216036 C2.16830478,25.1486637 5.52215779,27.4976169 8.57035378,26.7690646 C11.6185498,26.0405122 13.2065008,22.509755 12.1178593,18.8826949 L12.1178593,18.8826949 Z M20.9860999,16.7075056 C24.2248081,15.8554343 25.845209,11.4799332 24.6058326,6.93485523 C23.3664562,2.38977728 19.7362558,-0.602939866 16.4975475,0.249131403 C13.2588393,1.10120267 11.6384384,5.47670379 12.8778148,10.0217817 C14.1171912,14.5668597 17.7484384,17.5606236 20.9860999,16.7075056 Z M50.4411778,13.6362806 C47.3929818,12.9077283 44.0401756,15.2566815 42.9504874,18.8837416 C41.861846,22.5108018 43.449797,26.041559 46.497993,26.7701114 C49.546189,27.4986637 52.8989952,25.1497105 53.9886834,21.5226503 C55.0773248,17.8955902 53.4893738,14.364833 50.4411778,13.6362806 L50.4411778,13.6362806 Z M34.0832936,16.7075056 C37.3220019,17.5595768 40.9522023,14.5668597 42.1915787,10.0217817 C43.4309551,5.47670379 41.8105542,1.10224944 38.571846,0.249131403 C35.3331377,-0.603986637 31.7029373,2.38977728 30.4635609,6.93485523 C29.2241845,11.4799332 30.8445854,15.8554343 34.0832936,16.7075056 Z" id="Shape"></path>
            </g>
            <g id="fa_spider" transform="translate(472.527959, 434.499815)" fill="#9B9B9B" fill-rule="nonzero">
                <path d="M5.89356725,6.56335283 L6.90448343,6.9005848 L7.08654971,6.9005848 L7.29005848,5.88226121 C7.31812865,5.74269006 7.36023392,5.58674464 7.41520468,5.42261209 L6.62417154,3.84054581 L7.55204678,1.05730994 C7.66081871,0.730604288 7.48460039,0.377387914 7.15750487,0.268226121 L6.56608187,0.0709551657 C6.23937622,-0.0382066277 5.88576998,0.138401559 5.77699805,0.465497076 L4.76764133,3.49395712 C4.66310919,3.80784077 4.68736549,4.15037339 4.83508772,4.44639376 L5.89356725,6.56335283 Z M22.3512671,13.660039 L20.2947368,10.5754386 C20.0633935,10.2284372 19.6739689,10.0199736 19.2569201,10.019883 L16.2183236,10.019883 L18.9079922,9.07017544 C19.1712084,8.98236729 19.3976813,8.80939193 19.5516569,8.5785575 L21.6413255,5.44366472 C21.8323587,5.15711501 21.7547758,4.76959064 21.4682261,4.5785575 L20.9493177,4.23235867 C20.662768,4.04132554 20.2752437,4.11890838 20.0842105,4.40545809 L18.1130604,7.36179337 L15.754386,8.14814815 L14.3469786,8.14814815 L13.9426901,6.12670565 C13.8573099,5.69902534 13.2654971,3.78167641 11.2280702,3.78167641 C9.19064327,3.78167641 8.59883041,5.69902534 8.51345029,6.12670565 L8.10916179,8.14814815 L6.70175439,8.14814815 L4.34346979,7.36179337 L2.37192982,4.40545809 C2.18089669,4.11890838 1.79376218,4.04132554 1.50682261,4.23235867 L0.98791423,4.5785575 C0.701364522,4.76959064 0.623781676,5.15672515 0.814814815,5.44366472 L2.90448343,8.5785575 C3.05845907,8.80939193 3.28493197,8.98236729 3.54814815,9.07017544 L6.23781676,10.0194932 L3.19922027,10.0194932 C2.78206481,10.0195789 2.39252059,10.2280282 2.16101365,10.5750487 L0.104873294,13.660039 C-0.0861598441,13.9465887 -0.0089668616,14.3341131 0.27797271,14.5251462 L0.796881092,14.871345 C1.0834308,15.0623782 1.47095517,14.9847953 1.6619883,14.6982456 L3.53333333,11.8912281 L5.36803119,11.8912281 L2.99649123,15.68577 C2.87260007,15.8840538 2.80694474,16.113172 2.80701754,16.3469786 L2.80701754,19.3762183 C2.80701754,19.7208577 3.08615984,20 3.43079922,20 L4.0545809,20 C4.39922027,20 4.67836257,19.7208577 4.67836257,19.3762183 L4.67836257,16.5259259 L7.56647173,11.9048733 C7.52709552,12.4526316 7.48538012,13.0007797 7.48538012,13.5504873 C7.48538012,15.6194932 9.07446394,17.5048733 11.2280702,17.5048733 C13.3816764,17.5048733 14.9707602,15.6194932 14.9707602,13.5504873 C14.9707602,13.0007797 14.928655,12.4526316 14.8896686,11.9048733 L17.7777778,16.5259259 L17.7777778,19.3762183 C17.7777778,19.7208577 18.0569201,20 18.4015595,20 L19.0253411,20 C19.3699805,20 19.6491228,19.7208577 19.6491228,19.3762183 L19.6491228,16.3465887 C19.6491228,16.1126706 19.5832359,15.8834308 19.4596491,15.6853801 L17.0881092,11.8908382 L18.922807,11.8908382 L20.794152,14.6978558 C20.9851852,14.9844055 21.3727096,15.0619883 21.6592593,14.8709552 L22.1781676,14.5247563 C22.4651072,14.3337232 22.5423002,13.9465887 22.3512671,13.660039 L22.3512671,13.660039 Z M15.8319688,3.84054581 L15.0409357,5.42261209 C15.0959064,5.58674464 15.1380117,5.74269006 15.1660819,5.88226121 L15.3695906,6.9005848 L15.5516569,6.9005848 L16.5625731,6.56335283 L17.6210526,4.44639376 C17.7689642,4.15042516 17.7932259,3.8078162 17.688499,3.49395712 L16.6791423,0.465497076 C16.5703704,0.138791423 16.2167641,-0.0382066277 15.8900585,0.0709551657 L15.2986355,0.268226121 C14.9719298,0.377387914 14.7953216,0.730604288 14.9040936,1.05730994 L15.8319688,3.84054581 Z" id="Shape"></path>
            </g>
            <g id="fa_headphones" transform="translate(524.436536, 650.650202)" fill="#9B9B9B" fill-rule="nonzero">
                <path d="M32.8521303,0 C14.6961952,0 0,14.6931153 0,32.8521303 L0,39.0119048 C0,40.5673489 0.878777661,41.9893031 2.27000521,42.6849269 L4.11575595,43.6077381 C4.37382484,51.3190058 10.705303,57.4912281 18.4793233,57.4912281 L21.5592105,57.4912281 C23.2602066,57.4912281 24.6390977,56.1123369 24.6390977,54.4113409 L24.6390977,31.8255013 C24.6390977,30.1245052 23.2602066,28.745614 21.5592105,28.745614 L18.4793233,28.745614 C14.4572473,28.745614 10.8218254,30.3983585 8.21303258,33.060921 L8.21303258,32.8521303 C8.21303258,19.2661062 19.2661062,8.21303258 32.8521303,8.21303258 C46.4381545,8.21303258 57.4912281,19.2661062 57.4912281,32.8521303 L57.4912281,33.060921 C54.8824353,30.3983585 51.2470134,28.745614 47.2249373,28.745614 L44.1450501,28.745614 C42.4440541,28.745614 41.0651629,30.1245052 41.0651629,31.8255013 L41.0651629,54.4113409 C41.0651629,56.1123369 42.4440541,57.4912281 44.1450501,57.4912281 L47.2249373,57.4912281 C54.9989577,57.4912281 61.3304358,51.3188774 61.5885047,43.6077381 L63.4341271,42.6849269 C64.8254045,41.989339 65.7042607,40.5673775 65.7042607,39.0119048 L65.7042607,32.8521303 C65.7042607,14.6963235 51.0111454,0 32.8521303,0 Z" id="Path"></path>
            </g>
            <g id="fa_redo" transform="translate(408.843154, 551.500000)" fill="#9B9B9B" fill-rule="nonzero">
                <path d="M102.56875,-1.5953011e-06 L92.6916667,-1.5953011e-06 C92.0075284,-1.5953011e-06 91.3529631,0.278857683 90.8805538,0.773706399 C90.4081445,1.26855511 90.1591696,1.93538354 90.1916667,2.61875 L91.025,19.8604167 C81.2183639,8.3044196 66.8228833,1.64997689 51.6666667,1.66666667 C23.1958333,1.66666667 -0.0208333333,24.9020833 -1.40100478e-05,53.3729167 C0.0208333333,81.8895833 23.1458333,105.000051 51.6666667,105.000051 C64.4605079,105.018069 76.8026641,100.271486 86.2875,91.6854167 C86.7995814,91.2271341 87.1004368,90.5782672 87.1193544,89.8913229 C87.138272,89.2043787 86.8735834,88.5399374 86.3875,88.0541667 L79.3041667,80.9708333 C78.3739396,80.0408465 76.8821815,79.9907569 75.8916667,80.85625 C64.4312868,90.939194 47.9230587,92.8673178 34.4475173,85.6968331 C20.9719759,78.5263484 13.3484246,63.7574377 15.3084797,48.6192657 C17.2685348,33.4810937 28.4021208,21.1408133 43.2595109,17.6388103 C58.116901,14.1368072 73.5896866,20.2057579 82.1041667,32.875 L60.9520833,31.8604167 C60.2687169,31.8279196 59.6018884,32.0768945 59.1070397,32.5493038 C58.612191,33.0217131 58.3325611,33.6762784 58.3333333,34.3604167 L58.3333333,44.2375 C58.3333333,45.6182119 59.4526215,46.7375 60.8333333,46.7375 L102.56875,46.7375 C103.949462,46.7375 105.06875,45.6182119 105.06875,44.2375 L105.06875,2.4999984 C105.06875,1.11928813 103.949462,-1.5953011e-06 102.56875,-1.5953011e-06 Z" id="Path"></path>
            </g>
            <g id="fa_sd_card" transform="translate(359.616145, 584.332300)" fill="#9B9B9B" fill-rule="nonzero">
                <path d="M35.6774194,0 L14.6774194,0 L0.677419355,14 L0.677419355,49 C0.677419355,52.8609375 3.81648185,56 7.67741935,56 L35.6774194,56 C39.5383569,56 42.6774194,52.8609375 42.6774194,49 L42.6774194,7 C42.6774194,3.1390625 39.5383569,0 35.6774194,0 Z M18.1774194,17.5 L12.9274194,17.5 L12.9274194,7 L18.1774194,7 L18.1774194,17.5 Z M26.9274194,17.5 L21.6774194,17.5 L21.6774194,7 L26.9274194,7 L26.9274194,17.5 Z M35.6774194,17.5 L30.4274194,17.5 L30.4274194,7 L35.6774194,7 L35.6774194,17.5 Z" id="Shape"></path>
            </g>
            <g id="fa_otter" transform="translate(642.039474, 626.499630)" fill="#9B9B9B" fill-rule="nonzero">
                <path d="M38,1.99999992 L36,1.99999992 L35.171875,1.171875 C34.4218166,0.421364819 33.4041872,-7.96690927e-08 32.343125,-7.96690927e-08 L31.0625,-7.96690927e-08 C30.36625,-7.96690927e-08 29.6825,0.181875 29.078125,0.526875 L19.5,5.99999992 L16,5.99999992 C9.3725,5.99999992 4,11.3725 4,17.9999999 L4,18.100625 C4,20.1475 3,21.984375 1.5275,23.40625 C0.390625,24.505 -0.22875,26.13625 0.078125,27.89375 C0.500625,30.31875 2.759375,31.9999999 5.220625,31.9999999 L12,31.9999999 C13.104375,31.9999999 14,31.104375 14,29.9999999 C14,28.895625 13.104375,27.9999999 12,27.9999999 L5,27.9999999 C4.448125,27.9999999 4,27.551875 4,26.9999999 C4,26.448125 4.448125,25.9999999 5,25.9999999 L19,25.9999999 C19.5525,25.9999999 20,25.5525 20,24.9999999 L20,23.9999999 C20,22.895625 19.104375,21.9999999 18,21.9999999 L14,21.9999999 L23.343125,16.96875 L28,25.9999999 L33,25.9999999 C33.5525,25.9999999 34,25.5525 34,24.9999999 L34,23.9999999 C34,22.895625 33.104375,21.9999999 32,21.9999999 L30.23625,21.9999999 L26.791875,15.111875 L32.57125,11.9999999 L34,11.9999999 C37.31375,11.9999999 40,9.31375 40,5.99999992 L40,3.99999992 C40,2.895625 39.104375,1.99999992 38,1.99999992 Z M32,3 C32.5525,3 33,3.4475 33,4 C33,4.5525 32.5525,5 32,5 C31.4475,5 31,4.5525 31,4 C31,3.4475 31.4475,3 32,3 Z M34,9 L31.815,9 L25.45,12.4275 L24.589375,10.705625 L32,7 L36.815625,7 C36.401875,8.16125 35.301875,9 34,9 Z" id="Shape"></path>
            </g>
            <g id="fa_hdd" transform="translate(313.311181, 615.000000)" fill="#9B9B9B" fill-rule="nonzero">
                <path d="M41.3731354,12.5155625 L33.7110521,1.50128125 C33.0567686,0.560743934 31.9835738,0 30.8378438,0 L11.1621563,0 C10.0164262,0 8.94323136,0.560743934 8.28894792,1.50128125 L0.626864583,12.5155625 C0.218755563,13.1022069 0,13.7997182 0,14.5143542 L0,24.5 C0,26.4330208 1.56697917,28 3.5,28 L38.5,28 C40.4330208,28 42,26.4330208 42,24.5 L42,14.5143542 C42,13.7996979 41.78125,13.10225 41.3731354,12.5155625 Z M11.1621562,3.5 L30.8378437,3.5 L36.519,11.6666667 L5.481,11.6666667 L11.1621562,3.5 Z M38.5,24.5 L3.5,24.5 L3.5,15.1666667 L38.5,15.1666667 L38.5,24.5 Z M36.1666667,19.8333333 C36.1666667,21.1219896 35.1219896,22.1666667 33.8333333,22.1666667 C32.5446771,22.1666667 31.5,21.1219896 31.5,19.8333333 C31.5,18.5446771 32.5446771,17.5 33.8333333,17.5 C35.1219896,17.5 36.1666667,18.5446771 36.1666667,19.8333333 Z M29.1666667,19.8333333 C29.1666667,21.1219896 28.1219896,22.1666667 26.8333333,22.1666667 C25.5446771,22.1666667 24.5,21.1219896 24.5,19.8333333 C24.5,18.5446771 25.5446771,17.5 26.8333333,17.5 C28.1219896,17.5 29.1666667,18.5446771 29.1666667,19.8333333 Z" id="Shape"></path>
            </g>
            <g id="fa_volleyball_ball" transform="translate(424.440921, 455.182675)" fill="#9B9B9B" fill-rule="nonzero">
                <path d="M22.6367166,23.8618292 C22.5589626,20.177643 21.7782226,16.5422149 20.3364639,13.1509606 C11.1354528,17.447468 4.37656024,25.5540857 2.06617419,35.1198946 C3.41826024,38.2178052 5.37900658,41.0124718 7.83200604,43.3379783 C10.1647342,35.2265023 15.4451684,28.2798941 22.6367166,23.8618292 L22.6367166,23.8618292 Z M18.8975392,10.2427115 C17.3563644,7.55753896 15.392328,5.13842104 13.081041,3.07848808 C3.85976336,8.1248576 -1.59193705,18.5722612 0.414450831,29.6479276 C3.79896373,21.2271785 10.3855906,14.245354 18.8975392,10.2427115 L18.8975392,10.2427115 Z M37.9075578,26.9727438 C38.7790192,16.8597382 35.1411745,6.95953131 28.0276174,0.180372244 C26.5380264,0.00810661771 22.798849,-0.376957724 18.0058113,1.04170038 C23.8700737,7.11848164 27.2496529,15.1687476 27.4804207,23.6105241 C30.7097669,25.3863074 34.2491549,26.5275794 37.9075578,26.9727438 L37.9075578,26.9727438 Z M25.2713674,27.9354046 C22.1195592,29.848989 19.3613798,32.3457948 17.1444831,35.2921602 C25.4537663,41.0985252 35.8403702,42.9022476 45.2643133,40.1358643 C47.2914255,37.419875 48.7462043,34.3207135 49.5405542,31.0260526 C46.8608655,31.7088447 44.1079932,32.0627369 41.342737,32.079913 C35.8099704,32.0697797 30.3076037,30.6511216 25.2713674,27.9354046 L25.2713674,27.9354046 Z M15.3103609,38.038277 C13.7701035,40.6729277 12.7061099,43.550777 12.0575805,46.5704921 C21.2778663,52.2296564 33.0901475,51.3263643 41.342737,44.331039 C29.9022728,45.9624958 20.7417948,41.8179875 15.3103609,38.038277 L15.3103609,38.038277 Z M33.5806506,1.49769762 C39.1843501,8.63152121 41.9406001,17.8325323 41.1400716,27.1957406 C44.2271411,27.202196 47.295506,26.7164571 50.2296167,25.7567511 C50.2296167,25.5540857 50.2600165,25.3514202 50.2600165,25.1487548 C50.2600165,14.2250874 43.2984585,4.97340997 33.5806506,1.49769762 Z" id="Shape"></path>
            </g>
            <g id="fa_map_marker" transform="translate(612.369693, 375.548140) scale(-1, 1) translate(-612.369693, -375.548140) translate(597.869693, 356.548140)" fill="#9B9B9B" fill-rule="nonzero">
                <path d="M12.7066908,37.0037706 C1.98933899,21.4667896 0,19.8722205 0,14.1621463 C0,6.3405847 6.3405847,0 14.1621463,0 C21.983708,0 28.3242927,6.3405847 28.3242927,14.1621463 C28.3242927,19.8722205 26.3349537,21.4667896 15.6176019,37.0037706 C14.9142891,38.0197571 13.4099298,38.0196833 12.7066908,37.0037706 Z" id="Path"></path>
            </g>
            <g id="fa_bookmark" transform="translate(214.713843, 712.000000)" fill="#9B9B9B" fill-rule="nonzero">
                <path d="M20.34375,0.5 L2.90625,0.5 C1.30115234,0.5 -3.55271368e-15,1.80115234 -3.55271368e-15,3.40625 L-3.55271368e-15,31.5 L11.625,24.71875 L23.25,31.5 L23.25,3.40625 C23.25,1.80115234 21.9488477,0.5 20.34375,0.5 Z M20.34375,26.4400977 L11.625,21.3541602 L2.90625,26.4400977 L2.90625,3.76953125 C2.90625,3.56889656 3.06889656,3.40625 3.26953125,3.40625 L19.9804688,3.40625 C20.1811211,3.40625 20.34375,3.56869727 20.34375,3.76928906 L20.34375,26.4400977 Z" id="Shape"></path>
            </g>
            <g id="fa_route" transform="translate(601.592105, 646.096188)" fill="#9B9B9B" fill-rule="nonzero">
                <path d="M26.8125,20.625 L20.625,20.625 C19.490625,20.625 18.5625,19.696875 18.5625,18.5625 C18.5625,17.428125 19.490625,16.5 20.625,16.5 L26.8125,16.5 C26.8125,16.5 33,9.60351562 33,6.1875 C33,2.77148438 30.2285156,0 26.8125,0 C23.3964844,0 20.625,2.77148438 20.625,6.1875 C20.625,7.83105469 22.0558594,10.2738281 23.5447266,12.375 L20.625,12.375 C17.2154297,12.375 14.4375,15.1529297 14.4375,18.5625 C14.4375,21.9720703 17.2154297,24.75 20.625,24.75 L26.8125,24.75 C27.946875,24.75 28.875,25.678125 28.875,26.8125 C28.875,27.946875 27.946875,28.875 26.8125,28.875 L11.9560547,28.875 C10.9248047,30.4734375 9.77753906,31.9494141 8.90742187,33 L26.8125,33 C30.2220703,33 33,30.2220703 33,26.8125 C33,23.4029297 30.2220703,20.625 26.8125,20.625 Z M26.8125,4.125 C27.9533203,4.125 28.875,5.04667969 28.875,6.1875 C28.875,7.32832031 27.9533203,8.25 26.8125,8.25 C25.6716797,8.25 24.75,7.32832031 24.75,6.1875 C24.75,5.04667969 25.6716797,4.125 26.8125,4.125 Z M6.1875,16.5 C2.77148438,16.5 0,19.2714844 0,22.6875 C0,26.1035156 6.1875,33 6.1875,33 C6.1875,33 12.375,26.1035156 12.375,22.6875 C12.375,19.2714844 9.60351562,16.5 6.1875,16.5 Z M6.1875,24.75 C5.04667969,24.75 4.125,23.8283203 4.125,22.6875 C4.125,21.5466797 5.04667969,20.625 6.1875,20.625 C7.32832031,20.625 8.25,21.5466797 8.25,22.6875 C8.25,23.8283203 7.32832031,24.75 6.1875,24.75 Z" id="Shape"></path>
            </g>
            <g id="fa_assistive_listening_systems" transform="translate(491.811181, 705.000000)" fill="#9B9B9B" fill-rule="nonzero">
                <path d="M16.453125,19.8046875 C16.453125,20.9826094 15.4982344,21.9375 14.3203125,21.9375 C13.1423906,21.9375 12.1875,20.9826094 12.1875,19.8046875 C12.1875,16.4445937 14.9211562,13.7109375 18.28125,13.7109375 C21.6413437,13.7109375 24.375,16.4445937 24.375,19.8046875 C24.375,20.9826094 23.4201094,21.9375 22.2421875,21.9375 C21.0642656,21.9375 20.109375,20.9826094 20.109375,19.8046875 C20.109375,18.7966289 19.2892324,17.9765625 18.28125,17.9765625 C17.2732676,17.9765625 16.453125,18.7966289 16.453125,19.8046875 Z M18.28125,6.3984375 C10.888998,6.3984375 4.875,12.4124355 4.875,19.8046875 C4.875,20.9826094 5.82989062,21.9375 7.0078125,21.9375 C8.18573437,21.9375 9.140625,20.9826094 9.140625,19.8046875 C9.140625,14.7645469 13.2411094,10.6640625 18.28125,10.6640625 C23.3213906,10.6640625 27.421875,14.7645469 27.421875,19.8046875 C27.421875,25.5300703 22.0129863,25.1604082 21.9377285,30.7446445 L21.9375,30.7734375 C21.9375,32.9575137 20.1606387,34.734375 17.9765625,34.734375 C16.7986406,34.734375 15.84375,35.6892656 15.84375,36.8671875 C15.84375,38.0451094 16.7986406,39 17.9765625,39 C22.5068848,39 26.1936797,35.3187656 26.203125,30.7906523 C26.2484473,28.168207 31.6875,27.1161211 31.6875,19.8046875 C31.6875,12.4124355 25.673502,6.3984375 18.28125,6.3984375 Z M12.1875,24.375 C10.8413145,24.375 9.75,25.4663145 9.75,26.8125 C9.75,28.1586855 10.8413145,29.25 12.1875,29.25 C13.5336855,29.25 14.625,28.1586855 14.625,26.8125 C14.625,25.4663145 13.5336855,24.375 12.1875,24.375 Z M2.4375,34.125 C1.09131445,34.125 0,35.2163145 0,36.5625 C0,37.9086855 1.09131445,39 2.4375,39 C3.78368555,39 4.875,37.9086855 4.875,36.5625 C4.875,35.2163145 3.78368555,34.125 2.4375,34.125 Z M39,19.8052207 C39,19.6895918 38.9990859,19.5748008 38.9965723,19.4600859 C38.8534453,10.7040527 33.2228965,2.93033203 24.983918,0.115095703 C23.8692949,-0.265611328 22.6569434,0.3290625 22.2760078,1.44368555 C21.8951484,2.55830859 22.4900508,3.77066016 23.6045977,4.1515957 C30.1482188,6.38754492 34.6198125,12.5695781 34.7315566,19.5347344 L34.7317852,19.5490547 C34.7337656,19.6342148 34.7342988,19.719375 34.7342988,19.8052207 C34.7342988,20.9831426 35.6891895,21.9380332 36.8671113,21.9380332 C38.0450332,21.9380332 39,20.9831426 39,19.8052207 Z M11.6520879,33.4416621 L5.55833789,27.3479121 L2.97298828,29.9332617 L9.06673828,36.0270117 L11.6520879,33.4416621 Z" id="Shape"></path>
            </g>
            <g id="fa_money_bill_alt" transform="translate(483.956058, 655.093645)" fill="#9B9B9B" fill-rule="nonzero">
                <path d="M17.1310212,4.89495784 C14.3954225,4.89495784 12.1778436,7.48196121 12.1778436,10.673665 C12.1778436,13.8648529 14.3954225,16.4523722 17.1310212,16.4523722 C19.865588,16.4523722 22.0841988,13.8658848 22.0841988,10.673665 C22.0841988,7.48196121 19.8666199,4.89495784 17.1310212,4.89495784 Z M19.1948452,13.5630186 C19.1948452,13.7910711 19.0101329,13.9757834 18.7820804,13.9757834 L15.479962,13.9757834 C15.2519095,13.9757834 15.0671972,13.7910711 15.0671972,13.5630186 L15.0671972,12.737489 C15.0671972,12.5094364 15.2519095,12.3247242 15.479962,12.3247242 L16.3054916,12.3247242 L16.3054916,9.46426415 L16.2812417,9.48025879 C16.1901968,9.54102134 16.0787286,9.56309155 15.971399,9.54160627 C15.8640693,9.52012098 15.7696861,9.45684338 15.7090465,9.36571656 L15.2508775,8.67897912 C15.190115,8.58793421 15.1680448,8.47646604 15.1895301,8.36913641 C15.2110153,8.26180679 15.274293,8.16742357 15.3654198,8.10678392 L16.1563803,7.57947689 C16.3597421,7.4438828 16.5986964,7.37154663 16.8431178,7.37154663 L17.543786,7.37154663 C17.7718385,7.37154663 17.9565508,7.55625887 17.9565508,7.78431143 L17.9565508,12.3247242 L18.7820804,12.3247242 C19.0101329,12.3247242 19.1948452,12.5094364 19.1948452,12.737489 L19.1948452,13.5630186 L19.1948452,13.5630186 Z M31.9905539,0.767309863 L2.27148848,0.767309863 C1.35979423,0.767309863 0.620429286,1.50667481 0.620429286,2.41836905 L0.620429286,18.928961 C0.620429286,19.8406552 1.35979423,20.5800202 2.27148848,20.5800202 L31.9905539,20.5800202 C32.9022482,20.5800202 33.6416131,19.8406552 33.6416131,18.928961 L33.6416131,2.41836905 C33.6416131,1.50667481 32.9022482,0.767309863 31.9905539,0.767309863 Z M31.1650243,14.801313 C29.3411199,14.801313 27.8629059,16.2795269 27.8629059,18.1034314 L6.39913645,18.1034314 C6.39913645,16.2795269 4.92092252,14.801313 3.09701807,14.801313 L3.09701807,6.54601703 C4.92092252,6.54601703 6.39913645,5.0678031 6.39913645,3.24389865 L27.8629059,3.24389865 C27.8629059,5.0678031 29.3411199,6.54601703 31.1650243,6.54601703 L31.1650243,14.801313 Z" id="Shape"></path>
            </g>
            <g id="fa_yen_sign" transform="translate(415.350676, 663.853829) scale(-1, 1) translate(-415.350676, -663.853829) translate(404.850676, 650.353829)" fill="#9B9B9B" fill-rule="nonzero">
                <path d="M19.9607143,-4.28228881e-16 L16.0252232,-4.28228881e-16 C15.7479911,-4.28228881e-16 15.4948661,0.156696429 15.3743304,0.403794643 L12.0354911,7.22611607 C11.1616071,9.31741071 10.4022321,11.559375 10.4022321,11.559375 L10.3238839,11.559375 C10.3238839,11.559375 9.56450893,9.31741071 8.690625,7.22611607 L5.35178571,0.403794643 C5.23125,0.156696429 4.978125,-4.28228881e-16 4.70089286,-4.28228881e-16 L0.771428571,-4.28228881e-16 C0.222991071,-4.28228881e-16 -0.120535714,0.584598214 0.132589286,1.06071429 L4.96004464,10.125 L1.44642857,10.125 C1.04866071,10.125 0.723214286,10.4504464 0.723214286,10.8482143 L0.723214286,12.7767857 C0.723214286,13.1745536 1.04866071,13.5 1.44642857,13.5 L6.76205357,13.5 L7.95535714,15.7419643 L7.95535714,17.3571429 L1.44642857,17.3571429 C1.04866071,17.3571429 0.723214286,17.6825893 0.723214286,18.0803571 L0.723214286,20.0089286 C0.723214286,20.4066964 1.04866071,20.7321429 1.44642857,20.7321429 L7.95535714,20.7321429 L7.95535714,26.2767857 C7.95535714,26.6745536 8.28080357,27 8.67857143,27 L12.0535714,27 C12.4513393,27 12.7767857,26.6745536 12.7767857,26.2767857 L12.7767857,20.7321429 L19.2857143,20.7321429 C19.6834821,20.7321429 20.0089286,20.4066964 20.0089286,20.0089286 L20.0089286,18.0803571 C20.0089286,17.6825893 19.6834821,17.3571429 19.2857143,17.3571429 L12.7767857,17.3571429 L12.7767857,15.7419643 L13.9700893,13.5 L19.2857143,13.5 C19.6834821,13.5 20.0089286,13.1745536 20.0089286,12.7767857 L20.0089286,10.8482143 C20.0089286,10.4504464 19.6834821,10.125 19.2857143,10.125 L15.7720982,10.125 L20.5995536,1.06071429 C20.8587054,0.584598214 20.5091518,-4.28228881e-16 19.9607143,-4.28228881e-16 Z" id="Path"></path>
            </g>
            <g id="fa_trailer" transform="translate(285.413700, 358.917325)" fill="#9B9B9B" fill-rule="nonzero">
                <path d="M45,18.4615385 L39.2307692,18.4615385 L39.2307692,1.15384615 C39.2307692,0.516594519 38.7141747,0 38.0769231,0 L1.15384615,0 C0.516594519,0 0,0.516594519 0,1.15384615 L0,21.9230769 C0,22.5603286 0.516594519,23.0769231 1.15384615,23.0769231 L4.73149038,23.0769231 C5.29615385,19.1675481 8.62572115,16.1538462 12.6923077,16.1538462 C16.7588942,16.1538462 20.0884615,19.1675481 20.653125,23.0769231 L45,23.0769231 C45.6372516,23.0769231 46.1538462,22.5603286 46.1538462,21.9230769 L46.1538462,19.6153846 C46.1538462,18.978133 45.6372516,18.4615385 45,18.4615385 Z M6.92307692,12.9576923 C6.10212832,13.3706607 5.32837589,13.8714236 4.61538462,14.4512019 L4.61538462,5.19230769 C4.61538462,4.87368188 4.87368188,4.61538462 5.19230769,4.61538462 L6.34615385,4.61538462 C6.66477966,4.61538462 6.92307692,4.87368188 6.92307692,5.19230769 L6.92307692,12.9576923 Z M13.8461538,11.6206731 C13.4632212,11.5853365 13.0838942,11.5384615 12.6923077,11.5384615 C12.3007212,11.5384615 11.9213942,11.5853365 11.5384615,11.6206731 L11.5384615,5.19230769 C11.5384615,4.87368188 11.7967588,4.61538462 12.1153846,4.61538462 L13.2692308,4.61538462 C13.5878566,4.61538462 13.8461538,4.87368188 13.8461538,5.19230769 L13.8461538,11.6206731 Z M20.7692308,14.4512019 C20.0562395,13.8714236 19.2824871,13.3706607 18.4615385,12.9576923 L18.4615385,5.19230769 C18.4615385,4.87368188 18.7198357,4.61538462 19.0384615,4.61538462 L20.1923077,4.61538462 C20.5109335,4.61538462 20.7692308,4.87368188 20.7692308,5.19230769 L20.7692308,14.4512019 Z M27.6923077,18.4615385 L25.3846154,18.4615385 L25.3846154,5.19230769 C25.3846154,4.87368188 25.6429126,4.61538462 25.9615385,4.61538462 L27.1153846,4.61538462 C27.4340104,4.61538462 27.6923077,4.87368188 27.6923077,5.19230769 L27.6923077,18.4615385 Z M34.6153846,18.4615385 L32.3076923,18.4615385 L32.3076923,5.19230769 C32.3076923,4.87368188 32.5659896,4.61538462 32.8846154,4.61538462 L34.0384615,4.61538462 C34.3570874,4.61538462 34.6153846,4.87368188 34.6153846,5.19230769 L34.6153846,18.4615385 Z M12.6923077,18.4615385 C9.50604952,18.4615385 6.92307692,21.0445111 6.92307692,24.2307692 C6.92307692,27.4170274 9.50604952,30 12.6923077,30 C15.8785659,30 18.4615385,27.4170274 18.4615385,24.2307692 C18.4615385,21.0445111 15.8785659,18.4615385 12.6923077,18.4615385 Z M12.6923077,26.5384615 C11.4178044,26.5384615 10.3846154,25.5052725 10.3846154,24.2307692 C10.3846154,22.956266 11.4178044,21.9230769 12.6923077,21.9230769 C13.966811,21.9230769 15,22.956266 15,24.2307692 C15,25.5052725 13.966811,26.5384615 12.6923077,26.5384615 Z" id="Shape"></path>
            </g>
            <g id="fa_bus_alt" transform="translate(452.377763, 516.000000)" fill="#9B9B9B" fill-rule="nonzero">
                <path d="M23.828125,6.25 L23.4375,6.25 L23.4375,3.90625 C23.4375,1.71875 18.59375,0 12.5,0 C6.40625,0 1.5625,1.71875 1.5625,3.90625 L1.5625,6.25 L1.171875,6.25 C0.524902344,6.25 0,6.77441406 0,7.421875 L0,11.328125 C0,11.9750977 0.524902344,12.5 1.171875,12.5 L1.5625,12.5 L1.5625,20.3125 C1.5625,21.175293 2.26220703,21.875 3.125,21.875 L3.125,23.4375 C3.125,24.300293 3.82470703,25 4.6875,25 L6.25,25 C7.11279297,25 7.8125,24.300293 7.8125,23.4375 L7.8125,21.875 L17.1875,21.875 L17.1875,23.4375 C17.1875,24.300293 17.887207,25 18.75,25 L20.3125,25 C21.175293,25 21.875,24.300293 21.875,23.4375 L21.875,21.875 L22.1875,21.875 C22.96875,21.875 23.4375,21.25 23.4375,20.625 L23.4375,12.5 L23.828125,12.5 C24.4750977,12.5 25,11.9750977 25,11.328125 L25,7.421875 C25,6.77441406 24.4750977,6.25 23.828125,6.25 Z M7.8125,3.515625 C7.8125,3.29980469 7.98730469,3.125 8.203125,3.125 L16.796875,3.125 C17.0126953,3.125 17.1875,3.29980469 17.1875,3.515625 L17.1875,4.296875 C17.1875,4.51269531 17.0126953,4.6875 16.796875,4.6875 L8.203125,4.6875 C7.98730469,4.6875 7.8125,4.51269531 7.8125,4.296875 L7.8125,3.515625 Z M5.46875,19.53125 C4.60595703,19.53125 3.90625,18.831543 3.90625,17.96875 C3.90625,17.105957 4.60595703,16.40625 5.46875,16.40625 C6.33154297,16.40625 7.03125,17.105957 7.03125,17.96875 C7.03125,18.831543 6.33154297,19.53125 5.46875,19.53125 Z M11.71875,14.0625 L6.25,14.0625 C5.38720703,14.0625 4.6875,13.362793 4.6875,12.5 L4.6875,7.8125 C4.6875,6.94970703 5.38720703,6.25 6.25,6.25 L11.71875,6.25 L11.71875,14.0625 Z M13.28125,14.0625 L13.28125,6.25 L18.75,6.25 C19.612793,6.25 20.3125,6.94970703 20.3125,7.8125 L20.3125,12.5 C20.3125,13.362793 19.612793,14.0625 18.75,14.0625 L13.28125,14.0625 Z M19.53125,19.53125 C18.668457,19.53125 17.96875,18.831543 17.96875,17.96875 C17.96875,17.105957 18.668457,16.40625 19.53125,16.40625 C20.394043,16.40625 21.09375,17.105957 21.09375,17.96875 C21.09375,18.831543 20.394043,19.53125 19.53125,19.53125 Z" id="Shape"></path>
            </g>
        </g>
    </g>
</svg>